<svg xmlns="http://www.w3.org/2000/svg" xmlns:xlink="http://www.w3.org/1999/xlink" width="1920" zoomAndPan="magnify" viewBox="0 0 1440 809.999993" height="1080" preserveAspectRatio="xMidYMid meet" version="1.0"><defs><clipPath id="823216d857"><path d="M 101 123 L 166 123 L 166 691.179688 L 101 691.179688 Z M 101 123 " clip-rule="nonzero"/></clipPath><clipPath id="4fa3ca8024"><path d="M 406 118.820312 L 532 118.820312 L 532 294 L 406 294 Z M 406 118.820312 " clip-rule="nonzero"/></clipPath><clipPath id="afa5d71e93"><path d="M 1282 123 L 1347 123 L 1347 691.179688 L 1282 691.179688 Z M 1282 123 " clip-rule="nonzero"/></clipPath></defs><rect x="-144" width="1728" fill="#ffffff" y="-80.999999" height="971.999992" fill-opacity="1"/><rect x="-144" width="1728" fill="#ffffff" y="-80.999999" height="971.999992" fill-opacity="1"/><g clip-path="url(#823216d857)"><path fill="#000000" d="M 101.671875 691.179688 L 101.671875 123.671875 L 165.722656 123.671875 L 165.722656 138.335938 L 116.433594 138.335938 L 116.433594 676.511719 L 165.722656 676.511719 L 165.722656 691.179688 Z M 101.671875 691.179688 " fill-opacity="1" fill-rule="nonzero"/></g><g clip-path="url(#4fa3ca8024)"><path fill="#000000" d="M 444.480469 167.789062 C 440.828125 167.789062 438.210938 166.84375 436.621094 164.949219 C 435.035156 163.058594 434.160156 160.929688 434.003906 158.5625 C 434.003906 156.984375 434.480469 154.621094 435.433594 151.464844 C 436.382812 148.3125 438.050781 144.605469 440.433594 140.347656 C 442.8125 136.089844 446.386719 132.070312 451.148438 128.285156 C 455.910156 124.5 461.542969 121.738281 468.054688 120.003906 L 475.671875 118.820312 L 478.53125 118.820312 C 483.769531 118.820312 486.863281 118.898438 487.816406 119.058594 C 497.816406 120.792969 506.152344 124.972656 512.816406 131.59375 C 519.484375 138.21875 524.246094 145.550781 527.105469 153.59375 C 529.960938 161.636719 531.3125 170.390625 531.152344 179.855469 C 531.152344 194.835938 527.421875 211.945312 519.960938 231.1875 C 512.5 250.425781 503.214844 265.171875 492.101562 275.425781 C 479.242188 287.253906 465.035156 293.167969 449.480469 293.167969 C 433.605469 293.167969 421.699219 287.015625 413.761719 274.714844 C 408.84375 267.460938 406.382812 260.207031 406.382812 252.949219 L 406.382812 250.347656 C 406.382812 231.898438 413.289062 215.257812 427.097656 200.433594 C 440.910156 185.609375 456.226562 178.117188 473.054688 177.960938 C 482.734375 177.960938 490.039062 180.40625 494.960938 185.292969 C 499.878906 190.183594 503.132812 195.464844 504.722656 201.144531 L 505.4375 198.542969 C 508.609375 185.453125 510.199219 174.648438 510.199219 166.132812 C 510.199219 152.253906 506.945312 142.476562 500.4375 136.800781 C 493.925781 131.121094 486.546875 128.203125 478.292969 128.046875 C 465.910156 128.046875 456.304688 133.09375 449.480469 143.1875 C 455.988281 144.132812 459.242188 147.289062 459.242188 152.648438 C 459.242188 156.59375 457.8125 160.0625 454.957031 163.058594 C 452.097656 166.054688 448.605469 167.632812 444.480469 167.789062 Z M 498.769531 215.574219 C 498.769531 205.164062 496.46875 197.753906 491.863281 193.335938 C 487.261719 188.921875 481.863281 186.714844 475.671875 186.714844 C 465.671875 186.714844 456.863281 190.339844 449.242188 197.59375 C 445.273438 202.011719 442.179688 206.664062 439.957031 211.554688 C 437.734375 216.441406 435.113281 224.484375 432.097656 235.683594 C 429.242188 247.035156 427.8125 255.316406 427.8125 260.519531 C 427.8125 275.503906 435.75 282.992188 451.625 282.992188 C 453.527344 282.992188 454.957031 282.914062 455.910156 282.757812 C 468.132812 280.707031 477.972656 273.609375 485.433594 261.46875 C 487.816406 257.523438 490.59375 250.902344 493.769531 241.597656 C 496.945312 232.292969 498.609375 223.617188 498.769531 215.574219 Z M 498.769531 215.574219 " fill-opacity="1" fill-rule="nonzero"/></g><path fill="#000000" d="M 537.34375 196.886719 C 536.230469 195.78125 535.675781 194.992188 535.675781 194.519531 C 535.675781 193.890625 535.914062 192.628906 536.390625 190.734375 C 536.867188 188.84375 537.261719 187.738281 537.582031 187.421875 C 537.898438 186.636719 538.613281 186.242188 539.722656 186.242188 C 540.835938 186.242188 544.882812 186.160156 551.867188 186.003906 L 564.488281 186.003906 L 569.011719 167.078125 C 569.488281 165.34375 570.042969 163.058594 570.679688 160.21875 C 571.3125 157.378906 571.867188 155.332031 572.34375 154.070312 C 572.820312 152.808594 573.296875 151.230469 573.773438 149.335938 C 574.25 147.445312 574.886719 146.105469 575.679688 145.316406 C 576.472656 144.527344 577.265625 143.582031 578.058594 142.476562 C 578.855469 141.375 579.964844 140.664062 581.394531 140.347656 C 582.820312 140.03125 584.25 139.875 585.679688 139.875 C 588.535156 140.03125 590.519531 140.898438 591.632812 142.476562 C 592.742188 144.054688 593.300781 145.550781 593.300781 146.972656 C 593.300781 148.074219 592.585938 151.78125 591.15625 158.089844 C 589.726562 164.398438 588.140625 170.628906 586.394531 176.777344 L 584.011719 185.53125 C 584.011719 185.847656 587.980469 186.003906 595.917969 186.003906 L 608.0625 186.003906 C 609.171875 187.109375 609.730469 187.976562 609.730469 188.605469 C 609.730469 192.074219 608.695312 194.835938 606.632812 196.886719 L 581.15625 196.886719 L 572.582031 231.1875 C 566.390625 256.421875 563.296875 269.984375 563.296875 271.875 C 563.296875 278.5 565.441406 281.8125 569.726562 281.8125 C 575.28125 281.8125 580.679688 279.128906 585.917969 273.769531 C 591.15625 268.40625 595.363281 261.78125 598.539062 253.898438 C 598.855469 252.949219 599.25 252.398438 599.726562 252.242188 C 600.203125 252.082031 601.394531 251.925781 603.300781 251.769531 L 604.253906 251.769531 C 606.632812 251.769531 607.824219 252.398438 607.824219 253.660156 C 607.824219 254.132812 607.585938 255.078125 607.109375 256.5 C 606.316406 259.023438 604.886719 262.019531 602.824219 265.488281 C 600.761719 268.957031 598.0625 272.664062 594.726562 276.605469 C 591.394531 280.550781 587.347656 283.863281 582.585938 286.542969 C 577.820312 289.222656 572.980469 290.5625 568.058594 290.5625 C 563.296875 290.5625 558.773438 289.382812 554.488281 287.015625 C 550.199219 284.648438 547.105469 280.550781 545.199219 274.714844 C 544.882812 273.453125 544.722656 271.324219 544.722656 268.328125 L 544.722656 264.070312 L 553.058594 230.949219 C 558.613281 208.714844 561.472656 197.515625 561.628906 197.359375 C 561.628906 197.042969 557.582031 196.886719 549.488281 196.886719 Z M 537.34375 196.886719 " fill-opacity="1" fill-rule="nonzero"/><path fill="#000000" d="M 648.03125 209.214844 C 648.144531 209.214844 652.183594 208.9375 660.152344 208.378906 C 668.121094 207.820312 672.214844 207.488281 672.441406 207.375 C 673.789062 207.375 674.460938 207.878906 674.460938 208.878906 C 674.460938 210.105469 672.441406 218.527344 668.402344 234.136719 C 664.136719 250.636719 662.003906 259.054688 662.003906 259.390625 C 662.003906 259.613281 662.394531 259.335938 663.183594 258.554688 C 670.027344 252.53125 677.324219 249.523438 685.066406 249.523438 C 691.128906 249.523438 696.007812 251.027344 699.710938 254.039062 C 703.417969 257.046875 705.324219 261.453125 705.4375 267.25 C 705.4375 272.9375 703.304688 281.746094 699.039062 293.675781 C 694.773438 305.605469 692.640625 312.742188 692.640625 315.082031 C 692.753906 316.644531 693.035156 317.703125 693.484375 318.261719 C 693.933594 318.820312 694.773438 319.097656 696.007812 319.097656 C 699.152344 319.097656 702.070312 317.425781 704.761719 314.078125 C 707.457031 310.734375 709.644531 306.164062 711.328125 300.367188 C 711.664062 299.140625 712 298.414062 712.339844 298.191406 C 712.675781 297.96875 713.574219 297.855469 715.03125 297.855469 C 717.277344 297.855469 718.398438 298.304688 718.398438 299.195312 C 718.398438 299.304688 718.175781 300.140625 717.726562 301.703125 C 715.929688 308.28125 713.066406 313.691406 709.140625 317.925781 C 705.324219 322.722656 700.777344 325.117188 695.503906 325.117188 L 694.664062 325.117188 C 689.386719 325.117188 685.570312 323.613281 683.214844 320.601562 C 680.859375 317.59375 679.679688 314.414062 679.679688 311.070312 C 679.679688 309.285156 681.699219 302.707031 685.738281 291.335938 C 689.78125 279.960938 691.855469 271.429688 691.96875 265.746094 C 691.96875 259.167969 689.5 255.878906 684.5625 255.878906 L 683.71875 255.878906 C 674.40625 255.878906 666.324219 261.339844 659.476562 272.269531 L 658.300781 274.441406 L 652.574219 297.019531 C 648.984375 311.515625 646.910156 319.433594 646.347656 320.769531 C 644.886719 323.78125 642.417969 325.285156 638.941406 325.285156 C 637.367188 325.285156 636.023438 324.785156 634.898438 323.78125 C 633.777344 322.777344 633.160156 321.773438 633.046875 320.769531 C 633.046875 319.207031 637.144531 302.261719 645.335938 269.925781 L 657.792969 220.421875 C 657.792969 218.972656 657.402344 218.078125 656.617188 217.746094 C 655.832031 217.410156 653.640625 217.132812 650.050781 216.910156 L 646.515625 216.910156 C 645.84375 216.238281 645.503906 215.792969 645.503906 215.570312 C 645.503906 215.347656 645.617188 214.289062 645.84375 212.394531 C 646.402344 210.273438 647.132812 209.214844 648.03125 209.214844 Z M 648.03125 209.214844 " fill-opacity="1" fill-rule="nonzero"/><path fill="#000000" d="M 728.5 295.347656 C 728.5 288.992188 729.566406 283.195312 731.699219 277.953125 C 733.832031 272.714844 736.578125 268.367188 739.945312 264.910156 C 743.3125 261.453125 747.074219 258.554688 751.226562 256.210938 C 755.378906 253.871094 759.304688 252.140625 763.011719 251.027344 C 766.714844 249.914062 770.25 249.410156 773.617188 249.523438 L 774.121094 249.523438 C 779.171875 249.523438 783.546875 250.75 787.25 253.203125 C 790.957031 255.65625 792.808594 259.277344 792.808594 264.074219 C 792.808594 274.109375 786.578125 280.6875 774.121094 283.808594 C 768.621094 285.257812 761.101562 286.039062 751.5625 286.148438 C 747.410156 286.148438 745.277344 286.261719 745.164062 286.484375 C 745.164062 286.707031 744.828125 288.65625 744.15625 292.335938 C 743.480469 296.015625 743.089844 299.25 742.976562 302.039062 C 742.976562 307.277344 744.15625 311.402344 746.511719 314.414062 C 748.867188 317.425781 752.402344 318.984375 757.117188 319.097656 C 761.832031 319.207031 767.050781 318.148438 772.773438 315.917969 C 778.496094 313.691406 783.660156 310.011719 788.261719 304.882812 C 789.273438 303.765625 789.945312 303.207031 790.28125 303.207031 C 790.730469 303.207031 791.460938 303.710938 792.46875 304.714844 C 793.480469 305.71875 794.042969 306.496094 794.152344 307.054688 C 794.265625 307.613281 793.761719 308.503906 792.636719 309.730469 C 791.515625 310.957031 789.832031 312.464844 787.589844 314.246094 C 785.34375 316.03125 782.761719 317.757812 779.84375 319.433594 C 776.925781 321.105469 773.390625 322.5 769.238281 323.613281 C 765.085938 324.726562 760.820312 325.285156 756.445312 325.285156 C 747.578125 325.285156 740.730469 322.332031 735.90625 316.421875 C 731.082031 310.511719 728.613281 303.488281 728.5 295.347656 Z M 784.726562 264.40625 C 784.054688 258.609375 780.238281 255.710938 773.277344 255.710938 C 769.574219 255.710938 766.152344 256.492188 763.011719 258.050781 C 759.867188 259.613281 757.34375 261.507812 755.433594 263.738281 C 753.527344 265.96875 751.898438 268.253906 750.550781 270.59375 C 749.207031 272.9375 748.308594 274.945312 747.859375 276.617188 C 747.410156 278.289062 747.128906 279.347656 747.015625 279.792969 C 747.015625 279.90625 748.140625 279.960938 750.382812 279.960938 C 763.066406 279.960938 771.933594 278.625 776.984375 275.949219 C 782.03125 273.269531 784.613281 269.425781 784.726562 264.40625 Z M 784.726562 264.40625 " fill-opacity="1" fill-rule="nonzero"/><path fill="#000000" d="M 834.21875 325.285156 C 825.800781 325.285156 819.011719 322.554688 813.851562 317.089844 C 808.6875 311.625 806.105469 305.046875 806.105469 297.355469 C 806.105469 290.109375 807.789062 283.25 811.15625 276.785156 C 814.523438 270.316406 819.125 264.6875 824.960938 259.890625 C 833.488281 253.089844 842.1875 249.6875 851.054688 249.6875 C 854.644531 249.6875 856.890625 249.746094 857.789062 249.855469 C 859.246094 250.191406 860.707031 250.582031 862.164062 251.027344 C 863.625 251.472656 865.585938 252.367188 868.058594 253.703125 C 870.527344 255.042969 872.546875 256.714844 874.117188 258.722656 C 875.6875 260.726562 877.148438 263.460938 878.496094 266.914062 C 879.839844 270.371094 880.515625 274.273438 880.515625 278.625 C 880.515625 290.554688 875.6875 301.3125 866.035156 310.902344 C 856.386719 320.492188 845.777344 325.285156 834.21875 325.285156 Z M 820.753906 303.375 C 820.753906 308.949219 822.210938 312.964844 825.128906 315.417969 C 828.046875 317.871094 831.359375 319.097656 835.0625 319.097656 C 840 319.097656 844.65625 317.3125 849.035156 313.746094 C 853.410156 310.175781 856.890625 305.496094 859.472656 299.695312 C 860.480469 297.355469 861.773438 293.230469 863.34375 287.320312 C 864.914062 281.410156 865.699219 276.28125 865.699219 271.933594 C 865.699219 267.027344 864.691406 263.292969 862.667969 260.726562 C 859.976562 257.382812 856.386719 255.710938 851.894531 255.710938 C 844.824219 255.710938 838.597656 258.945312 833.210938 265.410156 C 829.058594 270.316406 825.972656 276.839844 823.949219 284.980469 C 821.929688 293.117188 820.863281 299.25 820.753906 303.375 Z M 820.753906 303.375 " fill-opacity="1" fill-rule="nonzero"/><path fill="#000000" d="M 885.566406 275.445312 C 885.675781 275.109375 885.789062 274.664062 885.902344 274.109375 C 886.011719 273.550781 886.292969 272.324219 886.742188 270.429688 C 887.191406 268.53125 887.753906 266.804688 888.425781 265.242188 C 889.101562 263.683594 889.941406 261.84375 890.953125 259.722656 C 891.960938 257.605469 893.085938 255.933594 894.320312 254.707031 C 895.554688 253.480469 897.011719 252.253906 898.695312 251.027344 C 900.378906 249.800781 902.230469 249.300781 904.25 249.523438 C 907.503906 249.523438 910.367188 250.191406 912.835938 251.527344 C 915.304688 252.867188 917.046875 254.09375 918.054688 255.207031 C 919.066406 256.324219 919.683594 257.4375 919.90625 258.554688 C 920.132812 259.222656 920.300781 259.558594 920.410156 259.558594 C 920.523438 259.558594 920.972656 259.167969 921.757812 258.386719 C 927.144531 252.589844 933.375 249.6875 940.445312 249.6875 L 940.949219 249.6875 C 946.335938 249.6875 950.378906 251.976562 953.070312 256.546875 C 953.96875 258.664062 954.417969 260.726562 954.417969 262.734375 C 954.417969 266.078125 953.6875 268.753906 952.230469 270.761719 C 950.769531 272.769531 949.3125 274.050781 947.851562 274.609375 C 946.394531 275.167969 944.988281 275.390625 943.644531 275.277344 C 941.398438 275.277344 939.601562 274.664062 938.257812 273.4375 C 936.910156 272.210938 936.234375 270.59375 936.234375 268.589844 C 936.234375 263.238281 939.378906 259.667969 945.664062 257.882812 C 943.195312 256.433594 941.175781 255.710938 939.601562 255.710938 C 933.316406 255.710938 927.539062 259.835938 922.261719 268.085938 C 921.140625 269.871094 920.300781 271.710938 919.738281 273.605469 C 919.175781 275.5 917.269531 282.914062 914.015625 295.851562 C 910.199219 311.460938 908.011719 319.765625 907.449219 320.769531 C 905.992188 323.78125 903.578125 325.285156 900.210938 325.285156 C 898.75 325.285156 897.574219 324.949219 896.675781 324.28125 C 895.777344 323.613281 895.160156 322.945312 894.824219 322.273438 C 894.488281 321.605469 894.375 321.046875 894.488281 320.601562 C 894.488281 319.152344 896.730469 309.5625 901.21875 291.835938 C 905.710938 274.109375 907.953125 264.238281 907.953125 262.234375 C 907.953125 257.882812 906.496094 255.710938 903.578125 255.710938 C 901.21875 255.710938 899.199219 257.269531 897.515625 260.394531 C 895.832031 263.515625 894.488281 266.914062 893.476562 270.59375 C 892.464844 274.273438 891.847656 276.28125 891.625 276.617188 C 891.402344 276.839844 890.503906 276.949219 888.929688 276.949219 L 886.574219 276.949219 C 885.902344 276.28125 885.566406 275.78125 885.566406 275.445312 Z M 885.566406 275.445312 " fill-opacity="1" fill-rule="nonzero"/><path fill="#000000" d="M 961.488281 275.445312 C 961.488281 273.882812 962.328125 271.207031 964.011719 267.417969 C 965.695312 263.625 968.390625 259.667969 972.09375 255.542969 C 975.796875 251.417969 979.949219 249.410156 984.550781 249.523438 C 989.152344 249.523438 992.855469 250.804688 995.660156 253.367188 C 998.46875 255.933594 999.925781 259.5 1000.039062 264.074219 C 999.8125 266.191406 999.644531 267.363281 999.535156 267.585938 C 999.535156 267.917969 998.636719 270.484375 996.839844 275.277344 C 995.042969 280.074219 993.191406 285.480469 991.285156 291.5 C 989.375 297.523438 988.480469 302.316406 988.589844 305.882812 C 988.589844 310.679688 989.375 314.023438 990.949219 315.917969 C 992.519531 317.816406 994.875 318.820312 998.019531 318.929688 C 1000.601562 318.929688 1003.011719 318.316406 1005.257812 317.089844 C 1007.5 315.863281 1009.242188 314.582031 1010.476562 313.242188 C 1011.710938 311.90625 1013.226562 310.066406 1015.019531 307.722656 C 1015.019531 307.613281 1015.300781 306.496094 1015.863281 304.378906 C 1016.425781 302.261719 1017.210938 298.972656 1018.21875 294.511719 C 1019.230469 290.050781 1020.296875 285.925781 1021.417969 282.136719 C 1025.683594 265.410156 1028.039062 256.65625 1028.488281 255.878906 C 1029.949219 252.867188 1032.359375 251.363281 1035.726562 251.363281 C 1037.1875 251.363281 1038.363281 251.753906 1039.261719 252.53125 C 1040.160156 253.3125 1040.777344 253.980469 1041.113281 254.539062 C 1041.453125 255.097656 1041.5625 255.597656 1041.453125 256.042969 C 1041.453125 257.496094 1038.703125 269.203125 1033.203125 291.167969 C 1027.703125 313.132812 1024.5625 325.175781 1023.773438 327.292969 C 1020.632812 336.546875 1015.191406 343.90625 1007.445312 349.371094 C 999.703125 354.832031 991.957031 357.621094 984.214844 357.730469 C 979.164062 357.730469 974.730469 356.503906 970.914062 354.050781 C 967.097656 351.597656 965.191406 347.917969 965.191406 343.015625 C 965.191406 340.5625 965.585938 338.5 966.371094 336.824219 C 967.15625 335.152344 968.222656 333.925781 969.566406 333.144531 C 970.914062 332.367188 972.039062 331.808594 972.933594 331.472656 C 973.832031 331.140625 974.785156 330.972656 975.796875 330.972656 C 980.734375 330.972656 983.203125 333.3125 983.203125 337.996094 C 983.203125 340.226562 982.53125 342.175781 981.183594 343.851562 C 979.835938 345.523438 978.546875 346.636719 977.3125 347.195312 C 976.078125 347.753906 975.347656 348.03125 975.125 348.03125 L 974.617188 348.199219 C 974.84375 348.757812 975.910156 349.425781 977.816406 350.207031 C 979.726562 350.984375 981.632812 351.375 983.539062 351.375 L 984.886719 351.375 C 986.796875 351.375 988.253906 351.265625 989.265625 351.042969 C 992.96875 350.039062 996.390625 347.917969 999.535156 344.6875 C 1002.675781 341.453125 1005.089844 337.996094 1006.773438 334.316406 C 1008.457031 330.636719 1009.746094 327.515625 1010.644531 324.949219 C 1011.542969 322.386719 1011.992188 320.714844 1011.992188 319.933594 L 1010.980469 320.601562 C 1010.308594 321.046875 1009.242188 321.660156 1007.78125 322.441406 C 1006.324219 323.222656 1004.863281 323.890625 1003.40625 324.449219 C 1001.160156 325.007812 998.972656 325.285156 996.839844 325.285156 C 991.675781 325.285156 987.132812 324.058594 983.203125 321.605469 C 979.277344 319.152344 976.695312 315.195312 975.460938 309.730469 C 975.347656 308.949219 975.292969 307.222656 975.292969 304.546875 C 975.292969 298.191406 977.257812 289.882812 981.183594 279.625 C 985.113281 269.367188 987.074219 262.847656 987.074219 260.058594 C 987.074219 259.945312 987.074219 259.835938 987.074219 259.722656 C 987.074219 258.722656 987.074219 258.050781 987.074219 257.71875 C 987.074219 257.382812 986.851562 256.992188 986.402344 256.546875 C 985.953125 256.101562 985.335938 255.878906 984.550781 255.878906 L 983.878906 255.878906 C 981.296875 255.878906 978.9375 256.9375 976.808594 259.054688 C 974.675781 261.171875 972.992188 263.460938 971.757812 265.914062 C 970.523438 268.367188 969.566406 270.707031 968.894531 272.9375 C 968.222656 275.167969 967.773438 276.394531 967.546875 276.617188 C 967.324219 276.839844 966.425781 276.949219 964.855469 276.949219 L 962.496094 276.949219 C 961.824219 276.28125 961.488281 275.78125 961.488281 275.445312 Z M 961.488281 275.445312 " fill-opacity="1" fill-rule="nonzero"/><path fill="#000000" d="M 269.0625 508.671875 C 265.414062 508.671875 262.792969 507.726562 261.207031 505.832031 C 259.617188 503.941406 258.746094 501.8125 258.585938 499.445312 C 258.585938 497.871094 259.0625 495.503906 260.015625 492.351562 C 260.96875 489.195312 262.636719 485.488281 265.015625 481.230469 C 267.398438 476.972656 270.96875 472.953125 275.730469 469.167969 C 280.492188 465.382812 286.128906 462.621094 292.636719 460.886719 L 300.257812 459.703125 L 303.113281 459.703125 C 308.351562 459.703125 311.449219 459.785156 312.398438 459.941406 C 322.402344 461.675781 330.734375 465.855469 337.402344 472.480469 C 344.070312 479.101562 348.832031 486.4375 351.6875 494.480469 C 354.546875 502.523438 355.894531 511.273438 355.734375 520.738281 C 355.734375 535.71875 352.003906 552.832031 344.542969 572.070312 C 337.085938 591.3125 327.796875 606.054688 316.6875 616.308594 C 303.828125 628.136719 289.621094 634.050781 274.0625 634.050781 C 258.191406 634.050781 246.285156 627.898438 238.347656 615.597656 C 233.425781 608.34375 230.964844 601.089844 230.964844 593.835938 L 230.964844 591.230469 C 230.964844 572.78125 237.871094 556.140625 251.683594 541.316406 C 265.492188 526.492188 280.8125 519.003906 297.636719 518.84375 C 307.320312 518.84375 314.621094 521.289062 319.542969 526.179688 C 324.464844 531.066406 327.71875 536.351562 329.304688 542.027344 L 330.019531 539.425781 C 333.195312 526.335938 334.78125 515.53125 334.78125 507.015625 C 334.78125 493.136719 331.527344 483.359375 325.019531 477.683594 C 318.511719 472.003906 311.128906 469.089844 302.875 468.929688 C 290.492188 468.929688 280.890625 473.976562 274.0625 484.070312 C 280.574219 485.015625 283.828125 488.171875 283.828125 493.53125 C 283.828125 497.476562 282.398438 500.945312 279.539062 503.941406 C 276.683594 506.9375 273.191406 508.515625 269.0625 508.671875 Z M 323.351562 556.457031 C 323.351562 546.050781 321.050781 538.636719 316.449219 534.222656 C 311.84375 529.804688 306.445312 527.597656 300.257812 527.597656 C 290.253906 527.597656 281.445312 531.226562 273.824219 538.480469 C 269.859375 542.894531 266.761719 547.546875 264.539062 552.4375 C 262.316406 557.324219 259.699219 565.367188 256.683594 576.566406 C 253.824219 587.921875 252.394531 596.199219 252.394531 601.402344 C 252.394531 616.386719 260.332031 623.878906 276.207031 623.878906 C 278.113281 623.878906 279.539062 623.796875 280.492188 623.640625 C 292.714844 621.589844 302.558594 614.492188 310.019531 602.351562 C 312.398438 598.40625 315.179688 591.785156 318.351562 582.480469 C 321.527344 573.175781 323.195312 564.5 323.351562 556.457031 Z M 323.351562 556.457031 " fill-opacity="1" fill-rule="nonzero"/><path fill="#000000" d="M 363.832031 591.230469 C 363.832031 574.042969 370.65625 558.585938 384.308594 544.867188 C 397.960938 531.144531 412.722656 524.285156 428.597656 524.285156 C 437.488281 524.285156 444.472656 526.179688 449.550781 529.964844 C 454.632812 533.746094 457.25 538.714844 457.410156 544.867188 C 457.410156 549.441406 455.902344 553.304688 452.886719 556.457031 C 449.867188 559.613281 446.058594 561.269531 441.457031 561.425781 C 438.441406 561.425781 436.058594 560.636719 434.3125 559.058594 C 432.566406 557.484375 431.691406 555.117188 431.691406 551.964844 C 431.691406 548.808594 432.566406 546.128906 434.3125 543.921875 C 436.058594 541.710938 437.804688 540.054688 439.550781 538.953125 C 441.296875 537.847656 442.410156 537.375 442.882812 537.53125 L 443.121094 537.53125 C 443.121094 537.21875 442.644531 536.746094 441.695312 536.113281 C 440.742188 535.484375 439.074219 534.851562 436.695312 534.222656 C 434.3125 533.589844 431.613281 533.273438 428.597656 533.273438 C 423.835938 533.273438 419.3125 534.378906 415.027344 536.585938 C 411.691406 538.007812 408.277344 540.449219 404.785156 543.921875 C 397.800781 550.859375 392.722656 560.636719 389.546875 573.253906 C 386.371094 585.871094 384.707031 595.015625 384.546875 600.695312 C 384.546875 607.949219 386.609375 613.390625 390.738281 617.015625 C 394.230469 620.800781 398.835938 622.695312 404.546875 622.695312 L 405.5 622.695312 C 423.28125 622.695312 437.964844 615.992188 449.550781 602.585938 C 450.980469 601.011719 451.933594 600.222656 452.410156 600.222656 C 453.042969 600.222656 454.074219 600.929688 455.503906 602.351562 C 456.933594 603.769531 457.726562 604.875 457.886719 605.664062 C 458.042969 606.449219 457.328125 607.632812 455.742188 609.210938 C 454.15625 610.789062 451.851562 612.996094 448.835938 615.835938 C 445.820312 618.671875 442.25 621.039062 438.121094 622.929688 C 433.996094 624.824219 428.914062 626.796875 422.882812 628.84375 C 416.851562 630.894531 410.5 631.761719 403.835938 631.449219 C 391.929688 631.449219 382.324219 627.664062 375.023438 620.09375 C 367.722656 612.523438 363.992188 602.902344 363.832031 591.230469 Z M 363.832031 591.230469 " fill-opacity="1" fill-rule="nonzero"/><path fill="#000000" d="M 472.25 638.070312 C 472.25 626.808594 476.515625 616.105469 485.046875 605.960938 C 493.574219 595.8125 503.171875 590.683594 513.832031 590.574219 C 519.554688 590.574219 524.605469 593.304688 528.984375 598.769531 C 530.777344 595.421875 533.359375 593.75 536.726562 593.75 C 538.1875 593.75 539.476562 594.195312 540.597656 595.089844 C 541.722656 595.980469 542.28125 597.09375 542.28125 598.433594 C 542.28125 599.882812 540.207031 608.804688 536.054688 625.191406 C 531.902344 641.582031 529.769531 650.839844 529.65625 652.957031 C 529.65625 655.742188 530.050781 657.582031 530.835938 658.476562 C 531.621094 659.367188 532.796875 659.871094 534.371094 659.980469 C 535.378906 659.871094 536.503906 659.367188 537.738281 658.476562 C 540.09375 656.246094 542.394531 650.894531 544.640625 642.417969 C 545.3125 640.191406 545.875 639.019531 546.324219 638.90625 C 546.546875 638.796875 547.109375 638.742188 548.007812 638.742188 L 548.679688 638.742188 C 550.8125 638.742188 551.878906 639.242188 551.878906 640.246094 C 551.878906 640.914062 551.597656 642.417969 551.035156 644.761719 C 550.476562 647.101562 549.351562 650.113281 547.667969 653.792969 C 545.984375 657.472656 544.191406 660.257812 542.28125 662.15625 C 540.824219 663.605469 539.027344 664.777344 536.894531 665.667969 C 535.996094 665.890625 534.652344 666 532.855469 666 C 529.039062 666 525.839844 665.164062 523.257812 663.492188 C 520.679688 661.820312 518.996094 660.09375 518.207031 658.308594 L 517.199219 655.800781 C 517.085938 655.6875 516.863281 655.742188 516.527344 655.96875 C 516.300781 656.191406 516.078125 656.414062 515.851562 656.636719 C 509.230469 662.878906 502.496094 666 495.652344 666 C 489.476562 666 484.035156 663.773438 479.320312 659.3125 C 474.609375 654.851562 472.25 647.773438 472.25 638.070312 Z M 525.785156 609.472656 C 525.785156 608.804688 525.503906 607.578125 524.941406 605.792969 C 524.382812 604.007812 523.089844 602.058594 521.070312 599.9375 C 519.050781 597.820312 516.46875 596.707031 513.328125 596.59375 C 509.398438 596.59375 505.640625 598.320312 502.046875 601.777344 C 498.457031 605.234375 495.652344 609.75 493.628906 615.324219 C 490.375 624.132812 488.074219 633.277344 486.730469 642.753906 C 486.730469 643.089844 486.730469 643.703125 486.730469 644.59375 C 486.730469 645.484375 486.671875 646.15625 486.558594 646.601562 C 486.558594 651.617188 487.570312 655.074219 489.589844 656.96875 C 491.609375 658.867188 494.023438 659.871094 496.828125 659.980469 C 501.09375 659.980469 505.300781 658.140625 509.453125 654.460938 C 513.609375 650.78125 516.078125 647.9375 516.863281 645.933594 C 517.085938 645.484375 518.601562 639.519531 521.40625 628.035156 C 524.214844 616.550781 525.671875 610.363281 525.785156 609.472656 Z M 525.785156 609.472656 " fill-opacity="1" fill-rule="nonzero"/><path fill="#000000" d="M 575.445312 654.460938 C 575.445312 658.140625 576.847656 659.980469 579.65625 659.980469 C 583.808594 659.980469 587.34375 654.128906 590.261719 642.417969 C 590.933594 640.191406 591.496094 639.019531 591.945312 638.90625 C 592.167969 638.796875 592.730469 638.742188 593.628906 638.742188 L 594.300781 638.742188 C 595.3125 638.742188 595.984375 638.742188 596.320312 638.742188 C 596.65625 638.742188 596.9375 638.851562 597.164062 639.074219 C 597.386719 639.296875 597.5 639.6875 597.5 640.246094 C 597.386719 640.914062 597.21875 641.808594 596.992188 642.921875 C 596.769531 644.035156 596.152344 646.15625 595.140625 649.277344 C 594.132812 652.398438 593.011719 655.019531 591.773438 657.136719 C 590.539062 659.257812 588.800781 661.320312 586.558594 663.324219 C 584.3125 665.332031 581.730469 666.28125 578.8125 666.167969 C 574.773438 666.167969 571.011719 664.941406 567.535156 662.488281 C 564.054688 660.035156 562.257812 655.910156 562.148438 650.113281 C 562.148438 648.773438 562.203125 647.828125 562.316406 647.269531 L 573.257812 604.121094 C 580.328125 575.6875 583.863281 561.027344 583.863281 560.132812 C 583.863281 559.800781 583.808594 559.519531 583.695312 559.296875 C 583.582031 559.074219 583.359375 558.851562 583.019531 558.628906 C 582.683594 558.40625 582.402344 558.292969 582.179688 558.292969 C 581.957031 558.292969 581.507812 558.238281 580.832031 558.125 C 580.160156 558.015625 579.710938 557.960938 579.484375 557.960938 C 579.261719 557.960938 578.757812 557.902344 577.972656 557.792969 C 577.183594 557.679688 576.625 557.679688 576.289062 557.792969 C 575.164062 557.792969 574.4375 557.792969 574.097656 557.792969 C 573.761719 557.792969 573.3125 557.738281 572.753906 557.625 C 572.191406 557.511719 571.855469 557.347656 571.742188 557.125 C 571.628906 556.898438 571.574219 556.566406 571.574219 556.121094 C 571.574219 555.898438 571.6875 555.117188 571.910156 553.777344 C 572.472656 551.660156 573.089844 550.488281 573.761719 550.265625 C 574.4375 550.042969 578.476562 549.707031 585.882812 549.261719 C 587.566406 549.152344 589.476562 549.039062 591.605469 548.929688 C 593.738281 548.816406 595.421875 548.648438 596.65625 548.425781 C 597.890625 548.203125 598.507812 548.148438 598.507812 548.257812 C 599.855469 548.257812 600.527344 548.707031 600.527344 549.597656 C 600.527344 550.824219 596.433594 567.546875 588.238281 599.773438 C 580.046875 631.996094 575.839844 648.886719 575.613281 650.449219 C 575.613281 650.671875 575.613281 651.117188 575.613281 651.785156 C 575.613281 652.453125 575.558594 653.011719 575.445312 653.457031 Z M 575.445312 654.460938 " fill-opacity="1" fill-rule="nonzero"/><path fill="#000000" d="M 611.640625 637.738281 C 611.640625 625.582031 616.464844 614.65625 626.117188 604.957031 C 635.769531 595.257812 646.207031 590.40625 657.429688 590.40625 C 663.714844 590.40625 668.652344 591.742188 672.242188 594.417969 C 675.835938 597.09375 677.6875 600.609375 677.800781 604.957031 C 677.800781 608.191406 676.734375 610.921875 674.601562 613.152344 C 672.46875 615.382812 669.773438 616.550781 666.519531 616.664062 C 664.386719 616.664062 662.703125 616.105469 661.46875 614.992188 C 660.234375 613.875 659.617188 612.203125 659.617188 609.972656 C 659.617188 607.742188 660.234375 605.847656 661.46875 604.289062 C 662.703125 602.726562 663.9375 601.554688 665.171875 600.773438 C 666.40625 599.996094 667.195312 599.660156 667.53125 599.773438 L 667.699219 599.773438 C 667.699219 599.546875 667.363281 599.214844 666.6875 598.769531 C 666.015625 598.320312 664.835938 597.875 663.152344 597.429688 C 661.46875 596.984375 659.5625 596.761719 657.429688 596.761719 C 654.0625 596.761719 650.863281 597.542969 647.835938 599.101562 C 645.476562 600.105469 643.0625 601.835938 640.59375 604.289062 C 635.65625 609.191406 632.066406 616.105469 629.820312 625.027344 C 627.578125 633.945312 626.398438 640.414062 626.285156 644.425781 C 626.285156 649.554688 627.746094 653.402344 630.664062 655.96875 C 633.132812 658.644531 636.386719 659.980469 640.425781 659.980469 L 641.101562 659.980469 C 653.671875 659.980469 664.050781 655.242188 672.242188 645.765625 C 673.253906 644.648438 673.925781 644.09375 674.265625 644.09375 C 674.714844 644.09375 675.441406 644.59375 676.453125 645.597656 C 677.460938 646.601562 678.023438 647.382812 678.136719 647.9375 C 678.25 648.496094 677.742188 649.332031 676.621094 650.449219 C 675.5 651.5625 673.871094 653.125 671.738281 655.128906 C 669.605469 657.136719 667.082031 658.808594 664.164062 660.148438 C 661.246094 661.484375 657.652344 662.878906 653.390625 664.328125 C 649.125 665.777344 644.636719 666.390625 639.921875 666.167969 C 631.503906 666.167969 624.714844 663.492188 619.550781 658.140625 C 614.390625 652.789062 611.753906 645.988281 611.640625 637.738281 Z M 611.640625 637.738281 " fill-opacity="1" fill-rule="nonzero"/><path fill="#000000" d="M 682.34375 616.328125 C 682.34375 615.4375 682.847656 613.707031 683.859375 611.144531 C 684.871094 608.578125 686.273438 605.679688 688.066406 602.449219 C 689.863281 599.214844 692.332031 596.425781 695.476562 594.085938 C 698.617188 591.742188 701.929688 590.515625 705.40625 590.40625 C 710.570312 590.40625 714.441406 591.800781 717.023438 594.585938 C 719.605469 597.375 720.894531 600.664062 720.894531 604.453125 C 720.894531 606.460938 718.988281 612.707031 715.171875 623.1875 C 711.355469 633.667969 709.449219 641.527344 709.449219 646.769531 C 709.449219 651.5625 710.234375 654.90625 711.804688 656.804688 C 713.375 658.699219 715.734375 659.703125 718.875 659.8125 C 722.019531 659.925781 724.992188 658.976562 727.796875 656.96875 C 730.601562 654.964844 732.679688 653.066406 734.027344 651.285156 L 735.878906 648.441406 C 736.101562 647.996094 738.234375 639.519531 742.273438 623.019531 C 745.640625 609.640625 747.660156 601.835938 748.335938 599.605469 C 749.007812 597.375 749.792969 595.757812 750.691406 594.753906 C 752.601562 593.082031 754.621094 592.246094 756.753906 592.246094 C 758.660156 592.246094 760.0625 592.804688 760.960938 593.917969 C 761.859375 595.03125 762.308594 596.09375 762.308594 597.09375 L 749.515625 650.28125 C 749.402344 650.839844 749.34375 651.730469 749.34375 652.957031 C 749.34375 655.742188 749.738281 657.582031 750.523438 658.476562 C 751.308594 659.367188 752.488281 659.871094 754.058594 659.980469 C 756.527344 659.644531 758.492188 657.917969 759.953125 654.796875 C 761.410156 651.675781 763.09375 646.769531 765 640.078125 C 765.226562 639.1875 766.347656 638.742188 768.367188 638.742188 C 770.5 638.742188 771.566406 639.242188 771.566406 640.246094 C 771.453125 640.804688 771.34375 641.582031 771.230469 642.585938 C 771.117188 643.589844 770.613281 645.375 769.714844 647.9375 C 768.816406 650.503906 767.863281 652.902344 766.851562 655.128906 C 765.84375 657.359375 764.441406 659.480469 762.644531 661.484375 C 760.847656 663.492188 758.828125 664.886719 756.585938 665.667969 C 755.6875 665.890625 754.339844 666 752.542969 666 C 745.136719 666 740.03125 662.878906 737.226562 656.636719 C 737 656.746094 736.382812 657.304688 735.371094 658.308594 C 734.363281 659.3125 733.351562 660.148438 732.34375 660.816406 C 731.332031 661.484375 730.097656 662.324219 728.640625 663.324219 C 727.179688 664.328125 725.554688 665 723.757812 665.332031 C 721.960938 665.667969 720.054688 665.945312 718.035156 666.167969 C 713.09375 666.167969 708.71875 665.164062 704.902344 663.160156 C 699.066406 659.703125 696.148438 653.792969 696.148438 645.429688 C 696.148438 639.074219 698.113281 630.769531 702.039062 620.511719 C 705.96875 610.253906 707.933594 603.730469 707.933594 600.941406 C 707.933594 600.832031 707.933594 600.71875 707.933594 600.609375 C 707.933594 599.605469 707.933594 598.933594 707.933594 598.601562 C 707.933594 598.265625 707.707031 597.875 707.257812 597.429688 C 706.8125 596.984375 706.191406 596.761719 705.40625 596.761719 L 704.734375 596.761719 C 702.152344 596.761719 699.796875 597.820312 697.664062 599.9375 C 695.53125 602.058594 693.847656 604.34375 692.613281 606.796875 C 691.378906 609.25 690.425781 611.589844 689.75 613.820312 C 689.078125 616.050781 688.628906 617.277344 688.40625 617.5 C 688.179688 617.722656 687.28125 617.835938 685.710938 617.835938 L 683.355469 617.835938 C 682.679688 617.164062 682.34375 616.664062 682.34375 616.328125 Z M 682.34375 616.328125 " fill-opacity="1" fill-rule="nonzero"/><path fill="#000000" d="M 794.796875 654.460938 C 794.796875 658.140625 796.203125 659.980469 799.007812 659.980469 C 803.160156 659.980469 806.695312 654.128906 809.613281 642.417969 C 810.285156 640.191406 810.847656 639.019531 811.296875 638.90625 C 811.519531 638.796875 812.082031 638.742188 812.980469 638.742188 L 813.652344 638.742188 C 814.664062 638.742188 815.335938 638.742188 815.671875 638.742188 C 816.011719 638.742188 816.289062 638.851562 816.515625 639.074219 C 816.738281 639.296875 816.851562 639.6875 816.851562 640.246094 C 816.738281 640.914062 816.570312 641.808594 816.347656 642.921875 C 816.121094 644.035156 815.503906 646.15625 814.496094 649.277344 C 813.484375 652.398438 812.363281 655.019531 811.128906 657.136719 C 809.894531 659.257812 808.152344 661.320312 805.910156 663.324219 C 803.664062 665.332031 801.082031 666.28125 798.164062 666.167969 C 794.125 666.167969 790.367188 664.941406 786.886719 662.488281 C 783.40625 660.035156 781.613281 655.910156 781.5 650.113281 C 781.5 648.773438 781.554688 647.828125 781.667969 647.269531 L 792.609375 604.121094 C 799.679688 575.6875 803.214844 561.027344 803.214844 560.132812 C 803.214844 559.800781 803.160156 559.519531 803.046875 559.296875 C 802.933594 559.074219 802.710938 558.851562 802.375 558.628906 C 802.039062 558.40625 801.757812 558.292969 801.53125 558.292969 C 801.308594 558.292969 800.859375 558.238281 800.183594 558.125 C 799.511719 558.015625 799.0625 557.960938 798.839844 557.960938 C 798.613281 557.960938 798.109375 557.902344 797.324219 557.792969 C 796.539062 557.679688 795.976562 557.679688 795.640625 557.792969 C 794.519531 557.792969 793.789062 557.792969 793.453125 557.792969 C 793.113281 557.792969 792.667969 557.738281 792.105469 557.625 C 791.542969 557.511719 791.207031 557.347656 791.09375 557.125 C 790.984375 556.898438 790.925781 556.566406 790.925781 556.121094 C 790.925781 555.898438 791.039062 555.117188 791.261719 553.777344 C 791.824219 551.660156 792.441406 550.488281 793.113281 550.265625 C 793.789062 550.042969 797.828125 549.707031 805.234375 549.261719 C 806.917969 549.152344 808.828125 549.039062 810.960938 548.929688 C 813.09375 548.816406 814.773438 548.648438 816.011719 548.425781 C 817.246094 548.203125 817.863281 548.148438 817.863281 548.257812 C 819.207031 548.257812 819.882812 548.707031 819.882812 549.597656 C 819.882812 550.824219 815.785156 567.546875 807.59375 599.773438 C 799.398438 631.996094 795.191406 648.886719 794.96875 650.449219 C 794.96875 650.671875 794.96875 651.117188 794.96875 651.785156 C 794.96875 652.453125 794.910156 653.011719 794.796875 653.457031 Z M 794.796875 654.460938 " fill-opacity="1" fill-rule="nonzero"/><path fill="#000000" d="M 830.824219 638.070312 C 830.824219 626.808594 835.089844 616.105469 843.617188 605.960938 C 852.148438 595.8125 861.742188 590.683594 872.40625 590.574219 C 878.128906 590.574219 883.179688 593.304688 887.554688 598.769531 C 889.351562 595.421875 891.933594 593.75 895.300781 593.75 C 896.757812 593.75 898.050781 594.195312 899.171875 595.089844 C 900.292969 595.980469 900.855469 597.09375 900.855469 598.433594 C 900.855469 599.882812 898.777344 608.804688 894.625 625.191406 C 890.472656 641.582031 888.339844 650.839844 888.230469 652.957031 C 888.230469 655.742188 888.621094 657.582031 889.40625 658.476562 C 890.195312 659.367188 891.371094 659.871094 892.941406 659.980469 C 893.953125 659.871094 895.074219 659.367188 896.308594 658.476562 C 898.667969 656.246094 900.96875 650.894531 903.210938 642.417969 C 903.886719 640.191406 904.445312 639.019531 904.894531 638.90625 C 905.121094 638.796875 905.679688 638.742188 906.578125 638.742188 L 907.253906 638.742188 C 909.386719 638.742188 910.449219 639.242188 910.449219 640.246094 C 910.449219 640.914062 910.171875 642.417969 909.609375 644.761719 C 909.046875 647.101562 907.925781 650.113281 906.242188 653.792969 C 904.558594 657.472656 902.761719 660.257812 900.855469 662.15625 C 899.394531 663.605469 897.601562 664.777344 895.46875 665.667969 C 894.570312 665.890625 893.222656 666 891.429688 666 C 887.613281 666 884.414062 665.164062 881.832031 663.492188 C 879.25 661.820312 877.566406 660.09375 876.78125 658.308594 L 875.773438 655.800781 C 875.660156 655.6875 875.433594 655.742188 875.097656 655.96875 C 874.875 656.191406 874.648438 656.414062 874.425781 656.636719 C 867.804688 662.878906 861.070312 666 854.222656 666 C 848.050781 666 842.609375 663.773438 837.894531 659.3125 C 833.179688 654.851562 830.824219 647.773438 830.824219 638.070312 Z M 884.359375 609.472656 C 884.359375 608.804688 884.078125 607.578125 883.515625 605.792969 C 882.953125 604.007812 881.664062 602.058594 879.644531 599.9375 C 877.625 597.820312 875.042969 596.707031 871.898438 596.59375 C 867.972656 596.59375 864.210938 598.320312 860.621094 601.777344 C 857.03125 605.234375 854.222656 609.75 852.203125 615.324219 C 848.949219 624.132812 846.648438 633.277344 845.300781 642.753906 C 845.300781 643.089844 845.300781 643.703125 845.300781 644.59375 C 845.300781 645.484375 845.246094 646.15625 845.132812 646.601562 C 845.132812 651.617188 846.144531 655.074219 848.164062 656.96875 C 850.183594 658.867188 852.597656 659.871094 855.402344 659.980469 C 859.667969 659.980469 863.875 658.140625 868.027344 654.460938 C 872.179688 650.78125 874.648438 647.9375 875.433594 645.933594 C 875.660156 645.484375 877.175781 639.519531 879.980469 628.035156 C 882.785156 616.550781 884.246094 610.363281 884.359375 609.472656 Z M 884.359375 609.472656 " fill-opacity="1" fill-rule="nonzero"/><path fill="#000000" d="M 918.699219 599.9375 C 917.914062 599.160156 917.519531 598.601562 917.519531 598.265625 C 917.519531 597.820312 917.691406 596.929688 918.027344 595.589844 C 918.363281 594.253906 918.644531 593.472656 918.867188 593.25 C 919.09375 592.691406 919.597656 592.414062 920.382812 592.414062 C 921.167969 592.414062 924.03125 592.355469 928.96875 592.246094 L 937.890625 592.246094 L 941.089844 578.867188 C 941.425781 577.640625 941.820312 576.023438 942.269531 574.015625 C 942.71875 572.007812 943.109375 570.558594 943.445312 569.667969 C 943.78125 568.773438 944.121094 567.660156 944.457031 566.320312 C 944.792969 564.984375 945.242188 564.035156 945.804688 563.480469 C 946.363281 562.921875 946.925781 562.253906 947.488281 561.472656 C 948.046875 560.691406 948.832031 560.191406 949.84375 559.964844 C 950.855469 559.742188 951.863281 559.632812 952.875 559.632812 C 954.894531 559.742188 956.296875 560.355469 957.082031 561.472656 C 957.867188 562.585938 958.261719 563.644531 958.261719 564.648438 C 958.261719 565.429688 957.753906 568.050781 956.746094 572.511719 C 955.734375 576.96875 954.613281 581.375 953.378906 585.722656 L 951.695312 591.910156 C 951.695312 592.132812 954.5 592.246094 960.113281 592.246094 L 968.699219 592.246094 C 969.484375 593.027344 969.875 593.640625 969.875 594.085938 C 969.875 596.539062 969.148438 598.488281 967.6875 599.9375 L 949.675781 599.9375 L 943.613281 624.191406 C 939.238281 642.03125 937.050781 651.617188 937.050781 652.957031 C 937.050781 657.640625 938.5625 659.980469 941.59375 659.980469 C 945.523438 659.980469 949.339844 658.085938 953.042969 654.292969 C 956.746094 650.503906 959.71875 645.820312 961.964844 640.246094 C 962.1875 639.578125 962.46875 639.1875 962.804688 639.074219 C 963.144531 638.964844 963.984375 638.851562 965.332031 638.742188 L 966.003906 638.742188 C 967.6875 638.742188 968.53125 639.1875 968.53125 640.078125 C 968.53125 640.414062 968.363281 641.082031 968.023438 642.085938 C 967.464844 643.871094 966.453125 645.988281 964.996094 648.441406 C 963.535156 650.894531 961.628906 653.515625 959.269531 656.300781 C 956.914062 659.089844 954.050781 661.429688 950.683594 663.324219 C 947.316406 665.222656 943.894531 666.167969 940.417969 666.167969 C 937.050781 666.167969 933.851562 665.332031 930.820312 663.660156 C 927.789062 661.988281 925.601562 659.089844 924.253906 654.964844 C 924.03125 654.070312 923.917969 652.566406 923.917969 650.449219 L 923.917969 647.4375 L 929.808594 624.023438 C 933.738281 608.300781 935.757812 600.386719 935.871094 600.273438 C 935.871094 600.050781 933.007812 599.9375 927.285156 599.9375 Z M 918.699219 599.9375 " fill-opacity="1" fill-rule="nonzero"/><path fill="#000000" d="M 1006.070312 563.980469 C 1006.070312 561.304688 1007.136719 558.964844 1009.269531 556.957031 C 1011.402344 554.949219 1013.871094 553.890625 1016.675781 553.777344 C 1018.695312 553.777344 1020.378906 554.449219 1021.726562 555.785156 C 1023.074219 557.125 1023.800781 558.796875 1023.914062 560.804688 C 1023.914062 563.367188 1022.792969 565.707031 1020.546875 567.828125 C 1018.304688 569.945312 1015.835938 571.0625 1013.140625 571.171875 C 1011.457031 571.171875 1009.886719 570.613281 1008.425781 569.5 C 1006.96875 568.382812 1006.183594 566.546875 1006.070312 563.980469 Z M 978.628906 616.328125 C 978.628906 615.4375 979.136719 613.707031 980.144531 611.144531 C 981.15625 608.578125 982.503906 605.738281 984.1875 602.613281 C 985.867188 599.492188 988.339844 596.648438 991.59375 594.085938 C 994.847656 591.519531 998.214844 590.292969 1001.695312 590.40625 C 1006.070312 590.40625 1009.71875 591.6875 1012.636719 594.253906 C 1015.554688 596.816406 1017.070312 600.273438 1017.179688 604.621094 C 1017.179688 606.515625 1016.394531 609.640625 1014.824219 613.988281 C 1013.253906 618.335938 1011.007812 624.191406 1008.089844 631.546875 C 1005.171875 638.90625 1002.816406 645.207031 1001.019531 650.449219 C 1000.457031 652.902344 1000.179688 654.683594 1000.179688 655.800781 C 1000.179688 658.585938 1001.132812 659.980469 1003.039062 659.980469 C 1004.050781 659.980469 1005.117188 659.8125 1006.238281 659.480469 C 1007.359375 659.144531 1008.652344 658.363281 1010.109375 657.136719 C 1011.570312 655.910156 1013.085938 653.960938 1014.65625 651.285156 C 1016.226562 648.609375 1017.628906 645.320312 1018.863281 641.417969 C 1019.203125 640.078125 1019.480469 639.296875 1019.707031 639.074219 C 1019.929688 638.851562 1020.882812 638.742188 1022.566406 638.742188 C 1024.8125 638.742188 1025.933594 639.296875 1025.933594 640.414062 C 1025.933594 641.304688 1025.429688 643.03125 1024.417969 645.597656 C 1023.410156 648.160156 1022.007812 651.003906 1020.210938 654.128906 C 1018.414062 657.25 1015.890625 660.035156 1012.636719 662.488281 C 1009.382812 664.941406 1005.902344 666.167969 1002.199219 666.167969 C 998.605469 666.167969 995.296875 665 992.265625 662.65625 C 989.234375 660.316406 987.664062 656.746094 987.550781 651.953125 C 987.550781 650.058594 987.832031 648.273438 988.394531 646.601562 C 988.957031 644.929688 991.367188 638.574219 995.632812 627.535156 C 999.898438 616.273438 1002.367188 609.527344 1003.039062 607.296875 C 1003.714844 605.066406 1004.105469 602.894531 1004.21875 600.773438 C 1004.21875 598.097656 1003.265625 596.761719 1001.355469 596.761719 L 1001.019531 596.761719 C 997.652344 596.761719 994.566406 598.601562 991.761719 602.28125 C 988.957031 605.960938 986.824219 610.644531 985.363281 616.328125 C 985.25 616.441406 985.140625 616.609375 985.027344 616.832031 C 984.914062 617.054688 984.859375 617.222656 984.859375 617.332031 C 984.859375 617.445312 984.746094 617.554688 984.523438 617.667969 C 984.296875 617.777344 984.128906 617.835938 984.015625 617.835938 C 983.90625 617.835938 983.679688 617.835938 983.34375 617.835938 C 983.007812 617.835938 982.558594 617.835938 981.996094 617.835938 L 979.640625 617.835938 C 978.96875 617.164062 978.628906 616.664062 978.628906 616.328125 Z M 978.628906 616.328125 " fill-opacity="1" fill-rule="nonzero"/><path fill="#000000" d="M 1067.011719 666.167969 C 1058.59375 666.167969 1051.804688 663.4375 1046.640625 657.972656 C 1041.480469 652.511719 1038.898438 645.933594 1038.898438 638.238281 C 1038.898438 630.992188 1040.582031 624.132812 1043.949219 617.667969 C 1047.316406 611.199219 1051.917969 605.570312 1057.753906 600.773438 C 1066.28125 593.972656 1074.980469 590.574219 1083.84375 590.574219 C 1087.4375 590.574219 1089.679688 590.628906 1090.578125 590.738281 C 1092.039062 591.074219 1093.496094 591.464844 1094.957031 591.910156 C 1096.414062 592.355469 1098.378906 593.25 1100.847656 594.585938 C 1103.316406 595.925781 1105.335938 597.597656 1106.910156 599.605469 C 1108.480469 601.613281 1109.9375 604.34375 1111.285156 607.800781 C 1112.632812 611.257812 1113.304688 615.160156 1113.304688 619.507812 C 1113.304688 631.4375 1108.480469 642.195312 1098.828125 651.785156 C 1089.175781 661.375 1078.570312 666.167969 1067.011719 666.167969 Z M 1053.542969 644.257812 C 1053.542969 649.835938 1055.003906 653.847656 1057.921875 656.300781 C 1060.839844 658.753906 1064.148438 659.980469 1067.851562 659.980469 C 1072.789062 659.980469 1077.449219 658.195312 1081.824219 654.628906 C 1086.203125 651.0625 1089.679688 646.378906 1092.261719 640.582031 C 1093.273438 638.238281 1094.5625 634.113281 1096.132812 628.203125 C 1097.707031 622.292969 1098.492188 617.164062 1098.492188 612.816406 C 1098.492188 607.910156 1097.480469 604.175781 1095.460938 601.613281 C 1092.769531 598.265625 1089.175781 596.59375 1084.6875 596.59375 C 1077.617188 596.59375 1071.386719 599.828125 1066 606.292969 C 1061.847656 611.199219 1058.761719 617.722656 1056.742188 625.863281 C 1054.722656 634 1053.65625 640.132812 1053.542969 644.257812 Z M 1053.542969 644.257812 " fill-opacity="1" fill-rule="nonzero"/><path fill="#000000" d="M 1118.355469 616.328125 C 1118.46875 615.660156 1118.636719 614.769531 1118.859375 613.652344 C 1119.085938 612.539062 1119.757812 610.417969 1120.882812 607.296875 C 1122.003906 604.175781 1123.125 601.554688 1124.25 599.4375 C 1125.371094 597.320312 1127.222656 595.257812 1129.804688 593.25 C 1132.382812 591.242188 1134.964844 590.292969 1137.546875 590.40625 C 1141.585938 590.40625 1144.953125 591.410156 1147.648438 593.417969 C 1150.339844 595.421875 1152.023438 597.320312 1152.699219 599.101562 C 1153.371094 600.886719 1153.707031 602.058594 1153.707031 602.613281 C 1153.707031 602.835938 1153.765625 602.949219 1153.875 602.949219 L 1155.726562 601.109375 C 1162.574219 593.972656 1170.375 590.40625 1179.128906 590.40625 C 1185.1875 590.40625 1190.070312 591.910156 1193.773438 594.921875 C 1197.476562 597.933594 1199.386719 602.335938 1199.496094 608.132812 C 1199.609375 613.933594 1197.476562 622.683594 1193.101562 634.390625 C 1188.722656 646.097656 1186.589844 653.179688 1186.703125 655.632812 C 1186.703125 658.53125 1187.65625 659.980469 1189.566406 659.980469 C 1190.238281 659.980469 1190.742188 659.925781 1191.082031 659.8125 C 1194.335938 659.257812 1197.253906 657.136719 1199.835938 653.457031 C 1202.414062 649.777344 1204.378906 645.320312 1205.726562 640.078125 C 1205.949219 639.1875 1207.074219 638.742188 1209.09375 638.742188 C 1211.339844 638.742188 1212.460938 639.1875 1212.460938 640.078125 C 1212.460938 640.191406 1212.234375 641.027344 1211.785156 642.585938 C 1210.890625 645.820312 1209.65625 649 1208.082031 652.121094 C 1206.511719 655.242188 1203.929688 658.363281 1200.339844 661.484375 C 1196.75 664.609375 1192.875 666.113281 1188.722656 666 C 1183.449219 666 1179.632812 664.496094 1177.277344 661.484375 C 1174.917969 658.476562 1173.742188 655.355469 1173.742188 652.121094 C 1173.742188 650 1175.761719 643.3125 1179.800781 632.050781 C 1183.84375 620.789062 1185.917969 612.316406 1186.03125 606.628906 C 1186.03125 600.050781 1183.5625 596.761719 1178.625 596.761719 L 1177.78125 596.761719 C 1168.128906 596.761719 1159.992188 602.390625 1153.371094 613.652344 L 1152.191406 615.660156 L 1146.636719 638.070312 C 1142.933594 652.679688 1140.800781 660.539062 1140.242188 661.652344 C 1138.78125 664.664062 1136.367188 666.167969 1133.003906 666.167969 C 1131.542969 666.167969 1130.363281 665.835938 1129.464844 665.164062 C 1128.570312 664.496094 1127.953125 663.828125 1127.613281 663.160156 C 1127.277344 662.488281 1127.167969 661.933594 1127.277344 661.484375 C 1127.277344 660.035156 1129.410156 650.949219 1133.675781 634.226562 C 1137.941406 617.5 1140.183594 608.414062 1140.410156 606.964844 C 1140.519531 606.40625 1140.578125 605.125 1140.578125 603.117188 C 1140.578125 598.769531 1139.230469 596.59375 1136.539062 596.59375 C 1132.273438 596.59375 1128.738281 602.167969 1125.929688 613.320312 C 1125.257812 615.546875 1124.921875 616.71875 1124.921875 616.832031 C 1124.695312 617.5 1123.628906 617.835938 1121.722656 617.835938 L 1119.367188 617.835938 C 1118.691406 617.164062 1118.355469 616.664062 1118.355469 616.328125 Z M 1118.355469 616.328125 " fill-opacity="1" fill-rule="nonzero"/><path fill="#000000" d="M 197.15625 414.523438 L 1251.652344 414.523438 L 1251.652344 400.328125 L 197.15625 400.328125 Z M 197.15625 414.523438 " fill-opacity="1" fill-rule="nonzero"/><g clip-path="url(#afa5d71e93)"><path fill="#000000" d="M 1282.84375 138.335938 L 1282.84375 123.671875 L 1346.894531 123.671875 L 1346.894531 691.179688 L 1282.84375 691.179688 L 1282.84375 676.511719 L 1332.132812 676.511719 L 1332.132812 138.335938 Z M 1282.84375 138.335938 " fill-opacity="1" fill-rule="nonzero"/></g></svg>