<svg xmlns="http://www.w3.org/2000/svg" xmlns:xlink="http://www.w3.org/1999/xlink" width="500" zoomAndPan="magnify" viewBox="0 0 375 374.999991" height="500" preserveAspectRatio="xMidYMid meet" version="1.0"><defs><clipPath id="e08ae2d4de"><path d="M 119 152 L 128 152 L 128 223.484375 L 119 223.484375 Z M 119 152 " clip-rule="nonzero"/></clipPath><clipPath id="7bca218c5f"><path d="M 147 151.515625 L 164 151.515625 L 164 174 L 147 174 Z M 147 151.515625 " clip-rule="nonzero"/></clipPath><clipPath id="d19940d475"><path d="M 246 152 L 255 152 L 255 223.484375 L 246 223.484375 Z M 246 152 " clip-rule="nonzero"/></clipPath></defs><rect x="-37.5" width="450" fill="#ffffff" y="-37.499999" height="449.999989" fill-opacity="1"/><rect x="-37.5" width="450" fill="#ffffff" y="-37.499999" height="449.999989" fill-opacity="1"/><g clip-path="url(#e08ae2d4de)"><path fill="#000000" d="M 119.832031 223.484375 L 119.832031 152.125 L 127.816406 152.125 L 127.816406 153.972656 L 121.671875 153.972656 L 121.671875 221.640625 L 127.816406 221.640625 L 127.816406 223.484375 Z M 119.832031 223.484375 " fill-opacity="1" fill-rule="nonzero"/></g><g clip-path="url(#7bca218c5f)"><path fill="#000000" d="M 152.453125 157.675781 C 151.996094 157.675781 151.671875 157.554688 151.472656 157.316406 C 151.273438 157.078125 151.164062 156.8125 151.144531 156.515625 C 151.144531 156.316406 151.203125 156.019531 151.324219 155.621094 C 151.441406 155.226562 151.648438 154.757812 151.945312 154.222656 C 152.242188 153.6875 152.6875 153.183594 153.28125 152.707031 C 153.875 152.230469 154.578125 151.882812 155.390625 151.664062 L 156.339844 151.515625 L 156.695312 151.515625 C 157.347656 151.515625 157.734375 151.527344 157.855469 151.546875 C 159.101562 151.765625 160.140625 152.289062 160.972656 153.125 C 161.800781 153.957031 162.394531 154.878906 162.753906 155.890625 C 163.109375 156.902344 163.277344 158 163.257812 159.191406 C 163.257812 161.074219 162.792969 163.226562 161.863281 165.644531 C 160.929688 168.066406 159.773438 169.917969 158.386719 171.207031 C 156.785156 172.695312 155.015625 173.4375 153.074219 173.4375 C 151.097656 173.4375 149.613281 172.664062 148.621094 171.117188 C 148.007812 170.207031 147.703125 169.292969 147.703125 168.382812 L 147.703125 168.054688 C 147.703125 165.734375 148.5625 163.644531 150.285156 161.777344 C 152.007812 159.914062 153.917969 158.972656 156.015625 158.953125 C 157.222656 158.953125 158.132812 159.261719 158.746094 159.875 C 159.359375 160.488281 159.765625 161.152344 159.960938 161.867188 L 160.050781 161.539062 C 160.445312 159.894531 160.644531 158.535156 160.644531 157.464844 C 160.644531 155.722656 160.238281 154.492188 159.425781 153.777344 C 158.617188 153.0625 157.695312 152.695312 156.667969 152.675781 C 155.125 152.675781 153.925781 153.3125 153.074219 154.582031 C 153.886719 154.699219 154.292969 155.097656 154.292969 155.769531 C 154.292969 156.265625 154.113281 156.703125 153.757812 157.078125 C 153.402344 157.457031 152.964844 157.652344 152.453125 157.675781 Z M 159.21875 163.683594 C 159.21875 162.375 158.933594 161.441406 158.359375 160.886719 C 157.785156 160.332031 157.113281 160.054688 156.339844 160.054688 C 155.09375 160.054688 153.996094 160.507812 153.046875 161.421875 C 152.550781 161.976562 152.164062 162.5625 151.886719 163.175781 C 151.609375 163.792969 151.285156 164.800781 150.90625 166.210938 C 150.550781 167.636719 150.375 168.679688 150.375 169.332031 C 150.375 171.21875 151.363281 172.160156 153.34375 172.160156 C 153.578125 172.160156 153.757812 172.148438 153.875 172.128906 C 155.398438 171.871094 156.628906 170.980469 157.558594 169.453125 C 157.855469 168.957031 158.199219 168.125 158.597656 166.953125 C 158.992188 165.785156 159.199219 164.695312 159.21875 163.683594 Z M 159.21875 163.683594 " fill-opacity="1" fill-rule="nonzero"/></g><path fill="#000000" d="M 164.027344 161.332031 C 163.890625 161.195312 163.820312 161.09375 163.820312 161.035156 C 163.820312 160.957031 163.851562 160.796875 163.910156 160.558594 C 163.96875 160.320312 164.019531 160.183594 164.058594 160.144531 C 164.097656 160.042969 164.1875 159.992188 164.324219 159.992188 C 164.464844 159.992188 164.96875 159.984375 165.839844 159.964844 L 167.414062 159.964844 L 167.976562 157.585938 C 168.035156 157.367188 168.105469 157.078125 168.183594 156.722656 C 168.261719 156.367188 168.332031 156.109375 168.390625 155.949219 C 168.453125 155.789062 168.511719 155.59375 168.570312 155.355469 C 168.628906 155.117188 168.707031 154.949219 168.808594 154.847656 C 168.90625 154.75 169.003906 154.628906 169.105469 154.492188 C 169.203125 154.351562 169.34375 154.261719 169.519531 154.222656 C 169.699219 154.183594 169.875 154.164062 170.054688 154.164062 C 170.410156 154.183594 170.65625 154.292969 170.796875 154.492188 C 170.933594 154.691406 171.003906 154.878906 171.003906 155.054688 C 171.003906 155.195312 170.914062 155.660156 170.738281 156.453125 C 170.558594 157.246094 170.359375 158.03125 170.144531 158.804688 L 169.847656 159.90625 C 169.847656 159.945312 170.339844 159.964844 171.332031 159.964844 L 172.84375 159.964844 C 172.984375 160.101562 173.050781 160.210938 173.050781 160.292969 C 173.050781 160.726562 172.921875 161.074219 172.667969 161.332031 L 169.492188 161.332031 L 168.421875 165.644531 C 167.648438 168.816406 167.265625 170.523438 167.265625 170.761719 C 167.265625 171.59375 167.53125 172.011719 168.066406 172.011719 C 168.757812 172.011719 169.429688 171.671875 170.082031 171 C 170.738281 170.324219 171.261719 169.492188 171.65625 168.5 C 171.695312 168.382812 171.746094 168.3125 171.804688 168.292969 C 171.863281 168.273438 172.011719 168.253906 172.25 168.234375 L 172.371094 168.234375 C 172.667969 168.234375 172.816406 168.3125 172.816406 168.472656 C 172.816406 168.53125 172.785156 168.648438 172.726562 168.828125 C 172.625 169.144531 172.449219 169.523438 172.191406 169.957031 C 171.933594 170.394531 171.597656 170.859375 171.183594 171.355469 C 170.765625 171.851562 170.261719 172.269531 169.667969 172.605469 C 169.074219 172.941406 168.472656 173.109375 167.859375 173.109375 C 167.265625 173.109375 166.699219 172.960938 166.164062 172.664062 C 165.632812 172.367188 165.246094 171.851562 165.007812 171.117188 C 164.96875 170.960938 164.949219 170.691406 164.949219 170.316406 L 164.949219 169.78125 L 165.988281 165.617188 C 166.679688 162.820312 167.035156 161.410156 167.054688 161.390625 C 167.054688 161.351562 166.550781 161.332031 165.542969 161.332031 Z M 164.027344 161.332031 " fill-opacity="1" fill-rule="nonzero"/><path fill="#000000" d="M 177.828125 162.882812 C 177.839844 162.882812 178.34375 162.847656 179.339844 162.777344 C 180.332031 162.707031 180.84375 162.664062 180.871094 162.652344 C 181.039062 162.652344 181.121094 162.714844 181.121094 162.839844 C 181.121094 162.996094 180.871094 164.054688 180.367188 166.015625 C 179.835938 168.089844 179.570312 169.148438 179.570312 169.191406 C 179.570312 169.21875 179.617188 169.183594 179.714844 169.085938 C 180.570312 168.328125 181.480469 167.949219 182.445312 167.949219 C 183.199219 167.949219 183.808594 168.140625 184.269531 168.519531 C 184.730469 168.898438 184.96875 169.449219 184.984375 170.179688 C 184.984375 170.894531 184.71875 172.003906 184.1875 173.503906 C 183.65625 175.003906 183.390625 175.898438 183.390625 176.195312 C 183.402344 176.390625 183.4375 176.523438 183.492188 176.59375 C 183.550781 176.664062 183.65625 176.699219 183.808594 176.699219 C 184.199219 176.699219 184.5625 176.488281 184.898438 176.066406 C 185.234375 175.648438 185.507812 175.074219 185.71875 174.34375 C 185.761719 174.1875 185.800781 174.097656 185.84375 174.070312 C 185.886719 174.042969 185.996094 174.027344 186.179688 174.027344 C 186.460938 174.027344 186.601562 174.085938 186.601562 174.195312 C 186.601562 174.210938 186.570312 174.316406 186.515625 174.511719 C 186.292969 175.339844 185.933594 176.019531 185.445312 176.550781 C 184.96875 177.15625 184.402344 177.457031 183.746094 177.457031 L 183.640625 177.457031 C 182.984375 177.457031 182.507812 177.265625 182.214844 176.886719 C 181.917969 176.507812 181.773438 176.109375 181.773438 175.691406 C 181.773438 175.464844 182.023438 174.636719 182.527344 173.207031 C 183.03125 171.777344 183.289062 170.707031 183.304688 169.992188 C 183.304688 169.164062 182.996094 168.75 182.382812 168.75 L 182.277344 168.75 C 181.113281 168.75 180.109375 169.4375 179.253906 170.8125 L 179.109375 171.085938 L 178.394531 173.921875 C 177.945312 175.746094 177.6875 176.742188 177.617188 176.910156 C 177.433594 177.289062 177.128906 177.476562 176.695312 177.476562 C 176.5 177.476562 176.332031 177.414062 176.191406 177.289062 C 176.050781 177.160156 175.972656 177.035156 175.960938 176.910156 C 175.960938 176.714844 176.46875 174.582031 177.492188 170.515625 L 179.042969 164.292969 C 179.042969 164.109375 178.996094 163.996094 178.898438 163.957031 C 178.800781 163.914062 178.527344 163.878906 178.078125 163.851562 L 177.636719 163.851562 C 177.554688 163.765625 177.511719 163.710938 177.511719 163.683594 C 177.511719 163.652344 177.527344 163.519531 177.554688 163.28125 C 177.625 163.015625 177.714844 162.882812 177.828125 162.882812 Z M 177.828125 162.882812 " fill-opacity="1" fill-rule="nonzero"/><path fill="#000000" d="M 187.859375 173.710938 C 187.859375 172.914062 187.992188 172.183594 188.257812 171.527344 C 188.523438 170.867188 188.867188 170.320312 189.285156 169.886719 C 189.707031 169.449219 190.175781 169.085938 190.691406 168.792969 C 191.210938 168.496094 191.699219 168.28125 192.160156 168.140625 C 192.621094 168 193.0625 167.9375 193.484375 167.949219 L 193.546875 167.949219 C 194.175781 167.949219 194.722656 168.105469 195.183594 168.414062 C 195.644531 168.722656 195.875 169.175781 195.875 169.78125 C 195.875 171.042969 195.097656 171.871094 193.546875 172.261719 C 192.859375 172.445312 191.921875 172.542969 190.734375 172.554688 C 190.214844 172.554688 189.949219 172.570312 189.9375 172.597656 C 189.9375 172.625 189.894531 172.871094 189.8125 173.335938 C 189.726562 173.796875 189.675781 174.203125 189.664062 174.554688 C 189.664062 175.210938 189.8125 175.730469 190.105469 176.109375 C 190.398438 176.488281 190.839844 176.683594 191.425781 176.699219 C 192.015625 176.714844 192.664062 176.578125 193.378906 176.300781 C 194.09375 176.019531 194.734375 175.554688 195.308594 174.910156 C 195.433594 174.769531 195.519531 174.699219 195.5625 174.699219 C 195.617188 174.699219 195.707031 174.765625 195.832031 174.890625 C 195.960938 175.015625 196.03125 175.113281 196.042969 175.183594 C 196.058594 175.253906 195.996094 175.367188 195.855469 175.519531 C 195.714844 175.675781 195.503906 175.863281 195.226562 176.089844 C 194.945312 176.3125 194.625 176.53125 194.257812 176.742188 C 193.894531 176.953125 193.457031 177.125 192.9375 177.265625 C 192.421875 177.40625 191.886719 177.476562 191.34375 177.476562 C 190.238281 177.476562 189.382812 177.105469 188.78125 176.363281 C 188.179688 175.621094 187.871094 174.734375 187.859375 173.710938 Z M 194.867188 169.824219 C 194.785156 169.09375 194.308594 168.730469 193.441406 168.730469 C 192.980469 168.730469 192.554688 168.828125 192.160156 169.023438 C 191.769531 169.21875 191.453125 169.457031 191.214844 169.738281 C 190.980469 170.019531 190.777344 170.304688 190.609375 170.601562 C 190.441406 170.894531 190.328125 171.148438 190.273438 171.359375 C 190.214844 171.566406 190.179688 171.699219 190.167969 171.757812 C 190.167969 171.769531 190.308594 171.777344 190.585938 171.777344 C 192.167969 171.777344 193.273438 171.609375 193.902344 171.273438 C 194.53125 170.9375 194.855469 170.453125 194.867188 169.824219 Z M 194.867188 169.824219 " fill-opacity="1" fill-rule="nonzero"/><path fill="#000000" d="M 201.039062 177.476562 C 199.988281 177.476562 199.144531 177.132812 198.5 176.445312 C 197.855469 175.757812 197.535156 174.933594 197.535156 173.964844 C 197.535156 173.054688 197.742188 172.191406 198.164062 171.378906 C 198.582031 170.566406 199.15625 169.859375 199.882812 169.253906 C 200.949219 168.398438 202.03125 167.972656 203.136719 167.972656 C 203.585938 167.972656 203.863281 167.980469 203.976562 167.992188 C 204.160156 168.035156 204.339844 168.082031 204.523438 168.140625 C 204.703125 168.195312 204.949219 168.308594 205.257812 168.476562 C 205.566406 168.644531 205.816406 168.855469 206.011719 169.105469 C 206.207031 169.359375 206.390625 169.703125 206.558594 170.136719 C 206.726562 170.574219 206.808594 171.0625 206.808594 171.609375 C 206.808594 173.109375 206.207031 174.460938 205.003906 175.667969 C 203.800781 176.875 202.480469 177.476562 201.039062 177.476562 Z M 199.359375 174.722656 C 199.359375 175.421875 199.542969 175.929688 199.90625 176.234375 C 200.269531 176.542969 200.683594 176.699219 201.144531 176.699219 C 201.757812 176.699219 202.339844 176.472656 202.886719 176.027344 C 203.429688 175.578125 203.863281 174.988281 204.1875 174.257812 C 204.3125 173.964844 204.472656 173.445312 204.667969 172.703125 C 204.863281 171.960938 204.964844 171.316406 204.964844 170.769531 C 204.964844 170.152344 204.835938 169.683594 204.585938 169.359375 C 204.25 168.9375 203.800781 168.730469 203.242188 168.730469 C 202.359375 168.730469 201.585938 169.136719 200.914062 169.949219 C 200.394531 170.566406 200.011719 171.386719 199.757812 172.410156 C 199.507812 173.433594 199.375 174.203125 199.359375 174.722656 Z M 199.359375 174.722656 " fill-opacity="1" fill-rule="nonzero"/><path fill="#000000" d="M 207.4375 171.210938 C 207.453125 171.167969 207.46875 171.113281 207.480469 171.042969 C 207.496094 170.972656 207.53125 170.816406 207.585938 170.578125 C 207.640625 170.339844 207.710938 170.125 207.796875 169.925781 C 207.878906 169.730469 207.984375 169.5 208.109375 169.234375 C 208.238281 168.96875 208.375 168.757812 208.53125 168.601562 C 208.683594 168.449219 208.867188 168.292969 209.078125 168.140625 C 209.285156 167.984375 209.515625 167.921875 209.769531 167.949219 C 210.175781 167.949219 210.53125 168.035156 210.839844 168.203125 C 211.148438 168.371094 211.363281 168.527344 211.488281 168.664062 C 211.617188 168.804688 211.691406 168.945312 211.71875 169.085938 C 211.75 169.171875 211.769531 169.210938 211.785156 169.210938 C 211.796875 169.210938 211.851562 169.164062 211.953125 169.066406 C 212.621094 168.335938 213.398438 167.972656 214.28125 167.972656 L 214.34375 167.972656 C 215.015625 167.972656 215.519531 168.257812 215.855469 168.835938 C 215.96875 169.101562 216.023438 169.359375 216.023438 169.613281 C 216.023438 170.03125 215.933594 170.371094 215.75 170.621094 C 215.566406 170.875 215.386719 171.035156 215.203125 171.105469 C 215.023438 171.175781 214.847656 171.203125 214.679688 171.1875 C 214.398438 171.1875 214.175781 171.113281 214.007812 170.957031 C 213.839844 170.804688 213.757812 170.601562 213.757812 170.347656 C 213.757812 169.675781 214.148438 169.226562 214.929688 169.003906 C 214.625 168.820312 214.371094 168.730469 214.175781 168.730469 C 213.390625 168.730469 212.671875 169.246094 212.015625 170.285156 C 211.875 170.507812 211.769531 170.742188 211.699219 170.980469 C 211.628906 171.21875 211.390625 172.148438 210.984375 173.777344 C 210.511719 175.738281 210.238281 176.78125 210.167969 176.910156 C 209.984375 177.289062 209.683594 177.476562 209.265625 177.476562 C 209.082031 177.476562 208.9375 177.433594 208.824219 177.351562 C 208.710938 177.265625 208.636719 177.183594 208.59375 177.097656 C 208.550781 177.015625 208.539062 176.945312 208.550781 176.886719 C 208.550781 176.707031 208.832031 175.5 209.390625 173.269531 C 209.949219 171.042969 210.230469 169.800781 210.230469 169.550781 C 210.230469 169.003906 210.046875 168.730469 209.683594 168.730469 C 209.390625 168.730469 209.140625 168.925781 208.929688 169.316406 C 208.71875 169.710938 208.550781 170.136719 208.425781 170.601562 C 208.300781 171.0625 208.222656 171.316406 208.195312 171.359375 C 208.167969 171.386719 208.054688 171.398438 207.859375 171.398438 L 207.566406 171.398438 C 207.480469 171.316406 207.4375 171.253906 207.4375 171.210938 Z M 207.4375 171.210938 " fill-opacity="1" fill-rule="nonzero"/><path fill="#000000" d="M 216.902344 171.210938 C 216.902344 171.015625 217.007812 170.675781 217.21875 170.199219 C 217.429688 169.722656 217.765625 169.226562 218.226562 168.707031 C 218.6875 168.1875 219.207031 167.9375 219.78125 167.949219 C 220.351562 167.949219 220.816406 168.113281 221.164062 168.433594 C 221.515625 168.757812 221.695312 169.207031 221.710938 169.78125 C 221.683594 170.046875 221.660156 170.195312 221.648438 170.222656 C 221.648438 170.265625 221.535156 170.585938 221.3125 171.1875 C 221.085938 171.792969 220.855469 172.472656 220.617188 173.230469 C 220.382812 173.984375 220.269531 174.589844 220.28125 175.039062 C 220.28125 175.640625 220.382812 176.0625 220.578125 176.300781 C 220.773438 176.539062 221.066406 176.664062 221.457031 176.679688 C 221.78125 176.679688 222.082031 176.601562 222.359375 176.445312 C 222.640625 176.292969 222.859375 176.132812 223.011719 175.964844 C 223.164062 175.792969 223.355469 175.5625 223.578125 175.269531 C 223.578125 175.253906 223.613281 175.113281 223.683594 174.847656 C 223.753906 174.582031 223.851562 174.167969 223.976562 173.609375 C 224.101562 173.046875 224.234375 172.527344 224.375 172.050781 C 224.90625 169.949219 225.199219 168.847656 225.257812 168.75 C 225.4375 168.371094 225.738281 168.183594 226.160156 168.183594 C 226.339844 168.183594 226.488281 168.230469 226.601562 168.328125 C 226.710938 168.425781 226.789062 168.511719 226.832031 168.582031 C 226.871094 168.652344 226.886719 168.714844 226.871094 168.769531 C 226.871094 168.953125 226.53125 170.425781 225.84375 173.1875 C 225.160156 175.949219 224.765625 177.464844 224.667969 177.730469 C 224.277344 178.894531 223.597656 179.816406 222.632812 180.503906 C 221.667969 181.191406 220.703125 181.542969 219.738281 181.558594 C 219.109375 181.558594 218.554688 181.402344 218.078125 181.09375 C 217.605469 180.785156 217.367188 180.324219 217.367188 179.707031 C 217.367188 179.398438 217.414062 179.136719 217.511719 178.929688 C 217.609375 178.71875 217.742188 178.5625 217.910156 178.464844 C 218.078125 178.367188 218.21875 178.296875 218.332031 178.253906 C 218.441406 178.214844 218.5625 178.191406 218.6875 178.191406 C 219.304688 178.191406 219.613281 178.488281 219.613281 179.074219 C 219.613281 179.355469 219.527344 179.601562 219.359375 179.8125 C 219.191406 180.023438 219.03125 180.160156 218.878906 180.230469 C 218.722656 180.300781 218.632812 180.335938 218.605469 180.335938 L 218.542969 180.359375 C 218.570312 180.429688 218.703125 180.511719 218.941406 180.609375 C 219.179688 180.707031 219.414062 180.757812 219.652344 180.757812 L 219.820312 180.757812 C 220.058594 180.757812 220.242188 180.742188 220.367188 180.714844 C 220.828125 180.589844 221.253906 180.324219 221.648438 179.917969 C 222.039062 179.511719 222.339844 179.074219 222.550781 178.613281 C 222.757812 178.148438 222.921875 177.757812 223.03125 177.433594 C 223.144531 177.113281 223.199219 176.902344 223.199219 176.804688 L 223.074219 176.886719 C 222.992188 176.945312 222.859375 177.019531 222.675781 177.121094 C 222.492188 177.21875 222.3125 177.300781 222.128906 177.371094 C 221.851562 177.441406 221.578125 177.476562 221.3125 177.476562 C 220.667969 177.476562 220.101562 177.324219 219.613281 177.015625 C 219.121094 176.707031 218.800781 176.207031 218.644531 175.519531 C 218.632812 175.421875 218.625 175.207031 218.625 174.871094 C 218.625 174.070312 218.871094 173.027344 219.359375 171.734375 C 219.847656 170.445312 220.09375 169.625 220.09375 169.277344 C 220.09375 169.261719 220.09375 169.246094 220.09375 169.234375 C 220.09375 169.105469 220.09375 169.023438 220.09375 168.980469 C 220.09375 168.9375 220.066406 168.890625 220.011719 168.835938 C 219.953125 168.777344 219.878906 168.75 219.78125 168.75 L 219.695312 168.75 C 219.375 168.75 219.078125 168.882812 218.8125 169.148438 C 218.546875 169.414062 218.339844 169.703125 218.183594 170.011719 C 218.03125 170.320312 217.910156 170.613281 217.828125 170.894531 C 217.742188 171.175781 217.6875 171.328125 217.660156 171.359375 C 217.632812 171.386719 217.519531 171.398438 217.324219 171.398438 L 217.03125 171.398438 C 216.945312 171.316406 216.902344 171.253906 216.902344 171.210938 Z M 216.902344 171.210938 " fill-opacity="1" fill-rule="nonzero"/><path fill="#000000" d="M 140.699219 200.535156 C 140.246094 200.535156 139.917969 200.417969 139.71875 200.179688 C 139.523438 199.941406 139.414062 199.671875 139.394531 199.375 C 139.394531 199.175781 139.453125 198.878906 139.570312 198.484375 C 139.691406 198.085938 139.898438 197.621094 140.195312 197.085938 C 140.492188 196.550781 140.9375 196.042969 141.53125 195.566406 C 142.125 195.09375 142.828125 194.746094 143.636719 194.527344 L 144.589844 194.378906 L 144.945312 194.378906 C 145.597656 194.378906 145.984375 194.386719 146.101562 194.40625 C 147.347656 194.625 148.386719 195.152344 149.21875 195.984375 C 150.050781 196.816406 150.644531 197.738281 151 198.75 C 151.355469 199.761719 151.523438 200.863281 151.503906 202.050781 C 151.503906 203.9375 151.039062 206.085938 150.109375 208.507812 C 149.179688 210.925781 148.023438 212.78125 146.636719 214.070312 C 145.035156 215.554688 143.261719 216.300781 141.324219 216.300781 C 139.34375 216.300781 137.859375 215.527344 136.871094 213.980469 C 136.257812 213.066406 135.949219 212.15625 135.949219 211.242188 L 135.949219 210.917969 C 135.949219 208.597656 136.8125 206.503906 138.53125 204.640625 C 140.253906 202.777344 142.164062 201.835938 144.261719 201.8125 C 145.46875 201.8125 146.378906 202.121094 146.992188 202.738281 C 147.605469 203.351562 148.011719 204.015625 148.210938 204.730469 L 148.300781 204.402344 C 148.695312 202.757812 148.890625 201.398438 148.890625 200.328125 C 148.890625 198.582031 148.488281 197.351562 147.675781 196.640625 C 146.863281 195.925781 145.945312 195.558594 144.914062 195.539062 C 143.371094 195.539062 142.175781 196.171875 141.324219 197.441406 C 142.132812 197.5625 142.539062 197.957031 142.539062 198.632812 C 142.539062 199.128906 142.363281 199.5625 142.007812 199.941406 C 141.648438 200.316406 141.214844 200.515625 140.699219 200.535156 Z M 147.46875 206.542969 C 147.46875 205.234375 147.179688 204.304688 146.605469 203.746094 C 146.03125 203.191406 145.359375 202.914062 144.589844 202.914062 C 143.339844 202.914062 142.242188 203.371094 141.292969 204.28125 C 140.796875 204.839844 140.414062 205.421875 140.136719 206.039062 C 139.859375 206.652344 139.53125 207.664062 139.15625 209.070312 C 138.800781 210.5 138.621094 211.539062 138.621094 212.195312 C 138.621094 214.078125 139.613281 215.019531 141.589844 215.019531 C 141.828125 215.019531 142.007812 215.011719 142.125 214.992188 C 143.648438 214.734375 144.875 213.839844 145.804688 212.3125 C 146.101562 211.816406 146.449219 210.984375 146.84375 209.816406 C 147.238281 208.644531 147.449219 207.554688 147.46875 206.542969 Z M 147.46875 206.542969 " fill-opacity="1" fill-rule="nonzero"/><path fill="#000000" d="M 152.515625 210.917969 C 152.515625 208.753906 153.363281 206.8125 155.066406 205.085938 C 156.769531 203.359375 158.609375 202.5 160.589844 202.5 C 161.695312 202.5 162.566406 202.738281 163.199219 203.210938 C 163.832031 203.6875 164.160156 204.3125 164.179688 205.085938 C 164.179688 205.660156 163.992188 206.148438 163.617188 206.542969 C 163.238281 206.941406 162.765625 207.148438 162.191406 207.167969 C 161.816406 207.167969 161.519531 207.070312 161.300781 206.871094 C 161.082031 206.671875 160.972656 206.375 160.972656 205.980469 C 160.972656 205.582031 161.082031 205.246094 161.300781 204.96875 C 161.519531 204.691406 161.734375 204.480469 161.953125 204.34375 C 162.171875 204.203125 162.308594 204.144531 162.367188 204.164062 L 162.398438 204.164062 C 162.398438 204.125 162.339844 204.066406 162.21875 203.984375 C 162.101562 203.90625 161.894531 203.828125 161.597656 203.746094 C 161.300781 203.667969 160.964844 203.628906 160.589844 203.628906 C 159.996094 203.628906 159.429688 203.765625 158.894531 204.046875 C 158.480469 204.222656 158.054688 204.53125 157.621094 204.96875 C 156.75 205.839844 156.117188 207.070312 155.71875 208.65625 C 155.324219 210.242188 155.117188 211.390625 155.097656 212.105469 C 155.097656 213.019531 155.355469 213.703125 155.867188 214.15625 C 156.304688 214.632812 156.878906 214.871094 157.589844 214.871094 L 157.707031 214.871094 C 159.925781 214.871094 161.753906 214.03125 163.199219 212.34375 C 163.378906 212.144531 163.496094 212.046875 163.554688 212.046875 C 163.636719 212.046875 163.765625 212.136719 163.941406 212.3125 C 164.121094 212.492188 164.21875 212.632812 164.238281 212.730469 C 164.257812 212.828125 164.167969 212.976562 163.972656 213.175781 C 163.773438 213.375 163.488281 213.652344 163.109375 214.007812 C 162.734375 214.367188 162.289062 214.664062 161.777344 214.902344 C 161.261719 215.140625 160.628906 215.386719 159.875 215.644531 C 159.125 215.902344 158.332031 216.011719 157.5 215.972656 C 156.015625 215.972656 154.820312 215.496094 153.910156 214.542969 C 153 213.59375 152.535156 212.382812 152.515625 210.917969 Z M 152.515625 210.917969 " fill-opacity="1" fill-rule="nonzero"/><path fill="#000000" d="M 166.03125 216.804688 C 166.03125 215.390625 166.5625 214.042969 167.625 212.769531 C 168.6875 211.492188 169.882812 210.847656 171.214844 210.832031 C 171.925781 210.832031 172.558594 211.175781 173.101562 211.863281 C 173.328125 211.441406 173.648438 211.234375 174.066406 211.234375 C 174.25 211.234375 174.410156 211.289062 174.550781 211.402344 C 174.691406 211.511719 174.761719 211.652344 174.761719 211.820312 C 174.761719 212.003906 174.5 213.125 173.984375 215.1875 C 173.464844 217.246094 173.199219 218.410156 173.1875 218.675781 C 173.1875 219.027344 173.234375 219.257812 173.332031 219.371094 C 173.429688 219.484375 173.578125 219.546875 173.773438 219.558594 C 173.898438 219.546875 174.039062 219.484375 174.195312 219.371094 C 174.488281 219.089844 174.773438 218.417969 175.054688 217.351562 C 175.136719 217.070312 175.207031 216.925781 175.265625 216.910156 C 175.292969 216.898438 175.363281 216.890625 175.472656 216.890625 L 175.558594 216.890625 C 175.824219 216.890625 175.957031 216.953125 175.957031 217.078125 C 175.957031 217.164062 175.921875 217.351562 175.851562 217.648438 C 175.78125 217.941406 175.640625 218.320312 175.433594 218.78125 C 175.222656 219.246094 175 219.59375 174.761719 219.832031 C 174.578125 220.015625 174.355469 220.164062 174.089844 220.273438 C 173.976562 220.304688 173.808594 220.316406 173.585938 220.316406 C 173.109375 220.316406 172.710938 220.210938 172.390625 220 C 172.066406 219.792969 171.855469 219.574219 171.757812 219.351562 L 171.632812 219.035156 C 171.621094 219.019531 171.589844 219.027344 171.550781 219.054688 C 171.523438 219.082031 171.492188 219.113281 171.464844 219.140625 C 170.640625 219.925781 169.800781 220.316406 168.945312 220.316406 C 168.175781 220.316406 167.5 220.035156 166.910156 219.476562 C 166.324219 218.914062 166.03125 218.023438 166.03125 216.804688 Z M 172.703125 213.210938 C 172.703125 213.125 172.667969 212.972656 172.597656 212.746094 C 172.527344 212.523438 172.367188 212.277344 172.117188 212.011719 C 171.863281 211.746094 171.542969 211.605469 171.152344 211.589844 C 170.660156 211.589844 170.191406 211.808594 169.746094 212.242188 C 169.296875 212.675781 168.945312 213.246094 168.695312 213.945312 C 168.289062 215.054688 168.003906 216.203125 167.835938 217.394531 C 167.835938 217.4375 167.835938 217.511719 167.835938 217.625 C 167.835938 217.738281 167.828125 217.820312 167.8125 217.878906 C 167.8125 218.507812 167.941406 218.945312 168.191406 219.183594 C 168.445312 219.421875 168.746094 219.546875 169.09375 219.558594 C 169.625 219.558594 170.148438 219.328125 170.667969 218.867188 C 171.1875 218.402344 171.492188 218.046875 171.589844 217.792969 C 171.621094 217.738281 171.808594 216.988281 172.15625 215.542969 C 172.507812 214.101562 172.691406 213.320312 172.703125 213.210938 Z M 172.703125 213.210938 " fill-opacity="1" fill-rule="nonzero"/><path fill="#000000" d="M 178.894531 218.867188 C 178.894531 219.328125 179.070312 219.558594 179.417969 219.558594 C 179.9375 219.558594 180.378906 218.824219 180.742188 217.351562 C 180.824219 217.070312 180.894531 216.925781 180.953125 216.910156 C 180.980469 216.898438 181.050781 216.890625 181.160156 216.890625 L 181.246094 216.890625 C 181.371094 216.890625 181.457031 216.890625 181.496094 216.890625 C 181.539062 216.890625 181.574219 216.902344 181.601562 216.929688 C 181.628906 216.960938 181.644531 217.007812 181.644531 217.078125 C 181.628906 217.164062 181.609375 217.273438 181.582031 217.414062 C 181.554688 217.554688 181.476562 217.820312 181.351562 218.214844 C 181.222656 218.605469 181.085938 218.9375 180.929688 219.203125 C 180.777344 219.46875 180.558594 219.726562 180.28125 219.980469 C 180 220.234375 179.679688 220.351562 179.316406 220.339844 C 178.8125 220.339844 178.34375 220.183594 177.910156 219.875 C 177.476562 219.566406 177.25 219.046875 177.238281 218.320312 C 177.238281 218.152344 177.242188 218.03125 177.257812 217.960938 L 178.621094 212.535156 C 179.503906 208.960938 179.945312 207.117188 179.945312 207.007812 C 179.945312 206.964844 179.9375 206.929688 179.921875 206.902344 C 179.910156 206.871094 179.882812 206.84375 179.839844 206.816406 C 179.796875 206.789062 179.761719 206.773438 179.734375 206.773438 C 179.707031 206.773438 179.648438 206.765625 179.566406 206.753906 C 179.480469 206.738281 179.425781 206.734375 179.398438 206.734375 C 179.371094 206.734375 179.308594 206.726562 179.210938 206.710938 C 179.113281 206.699219 179.042969 206.699219 179 206.710938 C 178.859375 206.710938 178.769531 206.710938 178.726562 206.710938 C 178.683594 206.710938 178.628906 206.703125 178.558594 206.691406 C 178.488281 206.675781 178.445312 206.65625 178.433594 206.628906 C 178.417969 206.597656 178.410156 206.558594 178.410156 206.5 C 178.410156 206.472656 178.425781 206.375 178.453125 206.207031 C 178.523438 205.941406 178.601562 205.792969 178.683594 205.765625 C 178.769531 205.738281 179.273438 205.695312 180.195312 205.640625 C 180.40625 205.625 180.644531 205.609375 180.910156 205.597656 C 181.175781 205.582031 181.386719 205.5625 181.539062 205.535156 C 181.691406 205.503906 181.769531 205.5 181.769531 205.511719 C 181.9375 205.511719 182.023438 205.570312 182.023438 205.679688 C 182.023438 205.835938 181.511719 207.9375 180.488281 211.988281 C 179.46875 216.042969 178.945312 218.164062 178.914062 218.363281 C 178.914062 218.390625 178.914062 218.445312 178.914062 218.53125 C 178.914062 218.613281 178.910156 218.683594 178.894531 218.738281 Z M 178.894531 218.867188 " fill-opacity="1" fill-rule="nonzero"/><path fill="#000000" d="M 183.40625 216.761719 C 183.40625 215.234375 184.007812 213.863281 185.210938 212.640625 C 186.414062 211.421875 187.714844 210.8125 189.117188 210.8125 C 189.898438 210.8125 190.515625 210.980469 190.960938 211.316406 C 191.410156 211.652344 191.640625 212.09375 191.65625 212.640625 C 191.65625 213.046875 191.523438 213.390625 191.257812 213.671875 C 190.988281 213.953125 190.652344 214.101562 190.25 214.113281 C 189.984375 214.113281 189.773438 214.042969 189.617188 213.902344 C 189.464844 213.761719 189.386719 213.554688 189.386719 213.273438 C 189.386719 212.992188 189.464844 212.753906 189.617188 212.558594 C 189.773438 212.359375 189.925781 212.214844 190.082031 212.117188 C 190.234375 212.019531 190.332031 211.976562 190.375 211.988281 L 190.394531 211.988281 C 190.394531 211.960938 190.351562 211.917969 190.269531 211.863281 C 190.1875 211.808594 190.039062 211.75 189.828125 211.695312 C 189.617188 211.640625 189.382812 211.609375 189.117188 211.609375 C 188.695312 211.609375 188.296875 211.710938 187.917969 211.90625 C 187.625 212.03125 187.324219 212.25 187.015625 212.558594 C 186.402344 213.175781 185.953125 214.042969 185.671875 215.164062 C 185.394531 216.285156 185.246094 217.101562 185.234375 217.605469 C 185.234375 218.25 185.414062 218.734375 185.777344 219.054688 C 186.085938 219.390625 186.492188 219.558594 186.996094 219.558594 L 187.078125 219.558594 C 188.648438 219.558594 189.941406 218.964844 190.960938 217.773438 C 191.089844 217.632812 191.171875 217.5625 191.214844 217.5625 C 191.269531 217.5625 191.359375 217.625 191.488281 217.75 C 191.613281 217.878906 191.683594 217.976562 191.695312 218.046875 C 191.710938 218.117188 191.648438 218.222656 191.507812 218.363281 C 191.367188 218.5 191.164062 218.699219 190.898438 218.949219 C 190.632812 219.203125 190.320312 219.414062 189.953125 219.582031 C 189.589844 219.75 189.144531 219.925781 188.613281 220.105469 C 188.078125 220.289062 187.519531 220.367188 186.933594 220.339844 C 185.882812 220.339844 185.035156 220 184.394531 219.328125 C 183.75 218.65625 183.421875 217.800781 183.40625 216.761719 Z M 183.40625 216.761719 " fill-opacity="1" fill-rule="nonzero"/><path fill="#000000" d="M 192.222656 214.070312 C 192.222656 213.960938 192.285156 213.742188 192.410156 213.417969 C 192.535156 213.097656 192.710938 212.734375 192.933594 212.328125 C 193.160156 211.917969 193.464844 211.570312 193.859375 211.273438 C 194.25 210.980469 194.664062 210.824219 195.097656 210.8125 C 195.738281 210.8125 196.222656 210.988281 196.542969 211.335938 C 196.867188 211.6875 197.027344 212.101562 197.027344 212.578125 C 197.027344 212.832031 196.789062 213.617188 196.3125 214.933594 C 195.839844 216.25 195.601562 217.238281 195.601562 217.898438 C 195.601562 218.5 195.699219 218.921875 195.894531 219.160156 C 196.089844 219.398438 196.382812 219.523438 196.773438 219.539062 C 197.167969 219.554688 197.539062 219.433594 197.886719 219.183594 C 198.238281 218.929688 198.496094 218.691406 198.664062 218.464844 L 198.894531 218.109375 C 198.921875 218.054688 199.1875 216.988281 199.691406 214.914062 C 200.113281 213.230469 200.363281 212.25 200.449219 211.96875 C 200.53125 211.6875 200.628906 211.484375 200.742188 211.359375 C 200.980469 211.148438 201.230469 211.042969 201.496094 211.042969 C 201.734375 211.042969 201.910156 211.113281 202.023438 211.253906 C 202.132812 211.394531 202.191406 211.527344 202.191406 211.652344 L 200.59375 218.339844 C 200.582031 218.410156 200.574219 218.523438 200.574219 218.675781 C 200.574219 219.027344 200.621094 219.257812 200.722656 219.371094 C 200.820312 219.484375 200.964844 219.546875 201.160156 219.558594 C 201.46875 219.519531 201.714844 219.300781 201.894531 218.910156 C 202.078125 218.515625 202.289062 217.898438 202.527344 217.058594 C 202.554688 216.945312 202.695312 216.890625 202.945312 216.890625 C 203.210938 216.890625 203.34375 216.953125 203.34375 217.078125 C 203.332031 217.148438 203.316406 217.246094 203.300781 217.375 C 203.289062 217.5 203.226562 217.722656 203.113281 218.046875 C 203 218.367188 202.882812 218.671875 202.757812 218.949219 C 202.628906 219.230469 202.457031 219.496094 202.230469 219.75 C 202.007812 220 201.757812 220.175781 201.476562 220.273438 C 201.363281 220.304688 201.195312 220.316406 200.972656 220.316406 C 200.050781 220.316406 199.414062 219.925781 199.0625 219.140625 C 199.035156 219.152344 198.957031 219.222656 198.832031 219.351562 C 198.707031 219.476562 198.582031 219.582031 198.453125 219.664062 C 198.328125 219.75 198.175781 219.855469 197.992188 219.980469 C 197.8125 220.105469 197.609375 220.191406 197.382812 220.234375 C 197.160156 220.273438 196.921875 220.308594 196.671875 220.339844 C 196.054688 220.339844 195.507812 220.210938 195.035156 219.960938 C 194.304688 219.523438 193.941406 218.78125 193.941406 217.730469 C 193.941406 216.929688 194.1875 215.886719 194.675781 214.597656 C 195.167969 213.308594 195.410156 212.488281 195.410156 212.136719 C 195.410156 212.121094 195.410156 212.109375 195.410156 212.09375 C 195.410156 211.96875 195.410156 211.882812 195.410156 211.84375 C 195.410156 211.800781 195.382812 211.75 195.328125 211.695312 C 195.269531 211.640625 195.195312 211.609375 195.097656 211.609375 L 195.011719 211.609375 C 194.691406 211.609375 194.398438 211.746094 194.132812 212.011719 C 193.863281 212.277344 193.65625 212.566406 193.5 212.871094 C 193.347656 213.179688 193.230469 213.476562 193.144531 213.757812 C 193.0625 214.035156 193.003906 214.191406 192.976562 214.21875 C 192.949219 214.246094 192.835938 214.261719 192.640625 214.261719 L 192.347656 214.261719 C 192.261719 214.175781 192.222656 214.113281 192.222656 214.070312 Z M 192.222656 214.070312 " fill-opacity="1" fill-rule="nonzero"/><path fill="#000000" d="M 206.242188 218.867188 C 206.242188 219.328125 206.414062 219.558594 206.765625 219.558594 C 207.28125 219.558594 207.722656 218.824219 208.085938 217.351562 C 208.171875 217.070312 208.242188 216.925781 208.296875 216.910156 C 208.324219 216.898438 208.394531 216.890625 208.507812 216.890625 L 208.589844 216.890625 C 208.714844 216.890625 208.800781 216.890625 208.84375 216.890625 C 208.882812 216.890625 208.917969 216.902344 208.949219 216.929688 C 208.976562 216.960938 208.988281 217.007812 208.988281 217.078125 C 208.976562 217.164062 208.953125 217.273438 208.925781 217.414062 C 208.898438 217.554688 208.820312 217.820312 208.695312 218.214844 C 208.570312 218.605469 208.429688 218.9375 208.277344 219.203125 C 208.121094 219.46875 207.90625 219.726562 207.625 219.980469 C 207.34375 220.234375 207.023438 220.351562 206.660156 220.339844 C 206.15625 220.339844 205.6875 220.183594 205.253906 219.875 C 204.820312 219.566406 204.597656 219.046875 204.582031 218.320312 C 204.582031 218.152344 204.589844 218.03125 204.601562 217.960938 L 205.96875 212.535156 C 206.847656 208.960938 207.289062 207.117188 207.289062 207.007812 C 207.289062 206.964844 207.28125 206.929688 207.269531 206.902344 C 207.253906 206.871094 207.226562 206.84375 207.183594 206.816406 C 207.144531 206.789062 207.109375 206.773438 207.078125 206.773438 C 207.050781 206.773438 206.996094 206.765625 206.910156 206.753906 C 206.828125 206.738281 206.773438 206.734375 206.742188 206.734375 C 206.714844 206.734375 206.652344 206.726562 206.554688 206.710938 C 206.457031 206.699219 206.386719 206.699219 206.34375 206.710938 C 206.207031 206.710938 206.113281 206.710938 206.074219 206.710938 C 206.03125 206.710938 205.972656 206.703125 205.90625 206.691406 C 205.835938 206.675781 205.792969 206.65625 205.777344 206.628906 C 205.765625 206.597656 205.757812 206.558594 205.757812 206.5 C 205.757812 206.472656 205.773438 206.375 205.800781 206.207031 C 205.871094 205.941406 205.945312 205.792969 206.03125 205.765625 C 206.113281 205.738281 206.617188 205.695312 207.542969 205.640625 C 207.75 205.625 207.988281 205.609375 208.253906 205.597656 C 208.519531 205.582031 208.730469 205.5625 208.882812 205.535156 C 209.039062 205.503906 209.117188 205.5 209.117188 205.511719 C 209.285156 205.511719 209.367188 205.570312 209.367188 205.679688 C 209.367188 205.835938 208.855469 207.9375 207.835938 211.988281 C 206.8125 216.042969 206.289062 218.164062 206.261719 218.363281 C 206.261719 218.390625 206.261719 218.445312 206.261719 218.53125 C 206.261719 218.613281 206.253906 218.683594 206.242188 218.738281 Z M 206.242188 218.867188 " fill-opacity="1" fill-rule="nonzero"/><path fill="#000000" d="M 210.730469 216.804688 C 210.730469 215.390625 211.261719 214.042969 212.328125 212.769531 C 213.390625 211.492188 214.585938 210.847656 215.914062 210.832031 C 216.628906 210.832031 217.257812 211.175781 217.804688 211.863281 C 218.027344 211.441406 218.347656 211.234375 218.769531 211.234375 C 218.949219 211.234375 219.113281 211.289062 219.253906 211.402344 C 219.390625 211.511719 219.460938 211.652344 219.460938 211.820312 C 219.460938 212.003906 219.203125 213.125 218.683594 215.1875 C 218.167969 217.246094 217.902344 218.410156 217.886719 218.675781 C 217.886719 219.027344 217.9375 219.257812 218.035156 219.371094 C 218.132812 219.484375 218.28125 219.546875 218.476562 219.558594 C 218.601562 219.546875 218.742188 219.484375 218.894531 219.371094 C 219.1875 219.089844 219.476562 218.417969 219.753906 217.351562 C 219.839844 217.070312 219.910156 216.925781 219.964844 216.910156 C 219.992188 216.898438 220.0625 216.890625 220.175781 216.890625 L 220.257812 216.890625 C 220.523438 216.890625 220.65625 216.953125 220.65625 217.078125 C 220.65625 217.164062 220.625 217.351562 220.554688 217.648438 C 220.484375 217.941406 220.34375 218.320312 220.132812 218.78125 C 219.921875 219.246094 219.699219 219.59375 219.460938 219.832031 C 219.28125 220.015625 219.054688 220.164062 218.789062 220.273438 C 218.679688 220.304688 218.511719 220.316406 218.285156 220.316406 C 217.8125 220.316406 217.414062 220.210938 217.089844 220 C 216.769531 219.792969 216.558594 219.574219 216.460938 219.351562 L 216.335938 219.035156 C 216.320312 219.019531 216.292969 219.027344 216.25 219.054688 C 216.222656 219.082031 216.195312 219.113281 216.167969 219.140625 C 215.339844 219.925781 214.503906 220.316406 213.648438 220.316406 C 212.878906 220.316406 212.199219 220.035156 211.613281 219.476562 C 211.023438 218.914062 210.730469 218.023438 210.730469 216.804688 Z M 217.40625 213.210938 C 217.40625 213.125 217.371094 212.972656 217.300781 212.746094 C 217.230469 212.523438 217.070312 212.277344 216.816406 212.011719 C 216.566406 211.746094 216.242188 211.605469 215.851562 211.589844 C 215.363281 211.589844 214.894531 211.808594 214.445312 212.242188 C 214 212.675781 213.648438 213.246094 213.398438 213.945312 C 212.992188 215.054688 212.703125 216.203125 212.535156 217.394531 C 212.535156 217.4375 212.535156 217.511719 212.535156 217.625 C 212.535156 217.738281 212.527344 217.820312 212.515625 217.878906 C 212.515625 218.507812 212.640625 218.945312 212.894531 219.183594 C 213.144531 219.421875 213.445312 219.546875 213.796875 219.558594 C 214.328125 219.558594 214.851562 219.328125 215.371094 218.867188 C 215.886719 218.402344 216.195312 218.046875 216.292969 217.792969 C 216.320312 217.738281 216.507812 216.988281 216.859375 215.542969 C 217.210938 214.101562 217.390625 213.320312 217.40625 213.210938 Z M 217.40625 213.210938 " fill-opacity="1" fill-rule="nonzero"/><path fill="#000000" d="M 221.6875 212.011719 C 221.589844 211.914062 221.539062 211.84375 221.539062 211.800781 C 221.539062 211.746094 221.558594 211.632812 221.601562 211.464844 C 221.644531 211.296875 221.679688 211.199219 221.707031 211.167969 C 221.734375 211.097656 221.796875 211.066406 221.894531 211.066406 C 221.996094 211.066406 222.351562 211.058594 222.964844 211.042969 L 224.078125 211.042969 L 224.476562 209.359375 C 224.519531 209.207031 224.570312 209.003906 224.625 208.75 C 224.679688 208.5 224.730469 208.316406 224.769531 208.203125 C 224.8125 208.09375 224.855469 207.953125 224.898438 207.785156 C 224.9375 207.617188 224.996094 207.496094 225.066406 207.425781 C 225.136719 207.355469 225.207031 207.273438 225.273438 207.175781 C 225.34375 207.074219 225.441406 207.011719 225.570312 206.984375 C 225.695312 206.957031 225.820312 206.941406 225.945312 206.941406 C 226.199219 206.957031 226.375 207.035156 226.472656 207.175781 C 226.570312 207.3125 226.617188 207.449219 226.617188 207.574219 C 226.617188 207.671875 226.554688 208 226.429688 208.5625 C 226.304688 209.121094 226.164062 209.675781 226.007812 210.222656 L 225.800781 211 C 225.800781 211.03125 226.148438 211.042969 226.847656 211.042969 L 227.917969 211.042969 C 228.015625 211.140625 228.066406 211.21875 228.066406 211.273438 C 228.066406 211.582031 227.976562 211.828125 227.792969 212.011719 L 225.546875 212.011719 L 224.792969 215.058594 C 224.246094 217.304688 223.972656 218.507812 223.972656 218.675781 C 223.972656 219.265625 224.164062 219.558594 224.539062 219.558594 C 225.03125 219.558594 225.507812 219.320312 225.96875 218.84375 C 226.429688 218.367188 226.800781 217.78125 227.078125 217.078125 C 227.109375 216.996094 227.144531 216.945312 227.183594 216.929688 C 227.226562 216.917969 227.332031 216.902344 227.5 216.890625 L 227.582031 216.890625 C 227.792969 216.890625 227.898438 216.945312 227.898438 217.058594 C 227.898438 217.101562 227.878906 217.183594 227.835938 217.308594 C 227.765625 217.535156 227.640625 217.800781 227.457031 218.109375 C 227.277344 218.417969 227.039062 218.746094 226.746094 219.097656 C 226.449219 219.449219 226.09375 219.742188 225.675781 219.980469 C 225.253906 220.21875 224.828125 220.339844 224.394531 220.339844 C 223.972656 220.339844 223.574219 220.234375 223.199219 220.023438 C 222.820312 219.8125 222.546875 219.449219 222.378906 218.929688 C 222.351562 218.816406 222.335938 218.628906 222.335938 218.363281 L 222.335938 217.984375 L 223.070312 215.039062 C 223.5625 213.0625 223.8125 212.066406 223.828125 212.054688 C 223.828125 212.023438 223.46875 212.011719 222.757812 212.011719 Z M 221.6875 212.011719 " fill-opacity="1" fill-rule="nonzero"/><path fill="#000000" d="M 229.535156 216.574219 C 229.535156 215.773438 229.667969 215.046875 229.933594 214.386719 C 230.199219 213.726562 230.542969 213.179688 230.960938 212.746094 C 231.382812 212.3125 231.851562 211.949219 232.367188 211.652344 C 232.886719 211.359375 233.375 211.140625 233.835938 211 C 234.300781 210.859375 234.738281 210.796875 235.160156 210.8125 L 235.222656 210.8125 C 235.851562 210.8125 236.398438 210.964844 236.859375 211.273438 C 237.320312 211.582031 237.550781 212.039062 237.550781 212.640625 C 237.550781 213.902344 236.777344 214.730469 235.222656 215.125 C 234.539062 215.304688 233.601562 215.402344 232.410156 215.417969 C 231.894531 215.417969 231.628906 215.429688 231.613281 215.460938 C 231.613281 215.488281 231.570312 215.734375 231.488281 216.195312 C 231.402344 216.660156 231.355469 217.066406 231.339844 217.414062 C 231.339844 218.074219 231.488281 218.59375 231.78125 218.972656 C 232.074219 219.351562 232.515625 219.546875 233.101562 219.558594 C 233.691406 219.574219 234.339844 219.441406 235.054688 219.160156 C 235.769531 218.878906 236.410156 218.417969 236.984375 217.773438 C 237.113281 217.632812 237.195312 217.5625 237.238281 217.5625 C 237.292969 217.5625 237.382812 217.625 237.511719 217.75 C 237.636719 217.878906 237.707031 217.976562 237.71875 218.046875 C 237.734375 218.117188 237.671875 218.226562 237.53125 218.382812 C 237.390625 218.535156 237.179688 218.726562 236.902344 218.949219 C 236.621094 219.175781 236.300781 219.390625 235.9375 219.601562 C 235.574219 219.8125 235.132812 219.988281 234.613281 220.128906 C 234.097656 220.269531 233.566406 220.339844 233.019531 220.339844 C 231.914062 220.339844 231.058594 219.96875 230.457031 219.222656 C 229.855469 218.480469 229.550781 217.597656 229.535156 216.574219 Z M 236.542969 212.683594 C 236.460938 211.953125 235.984375 211.589844 235.117188 211.589844 C 234.65625 211.589844 234.230469 211.6875 233.835938 211.882812 C 233.445312 212.082031 233.132812 212.320312 232.894531 212.601562 C 232.65625 212.878906 232.453125 213.167969 232.285156 213.460938 C 232.117188 213.757812 232.003906 214.007812 231.949219 214.21875 C 231.894531 214.429688 231.859375 214.5625 231.84375 214.617188 C 231.84375 214.632812 231.984375 214.640625 232.261719 214.640625 C 233.84375 214.640625 234.949219 214.472656 235.578125 214.132812 C 236.210938 213.796875 236.53125 213.316406 236.542969 212.683594 Z M 236.542969 212.683594 " fill-opacity="1" fill-rule="nonzero"/><path fill="#000000" d="M 131.734375 188.695312 L 242.960938 188.695312 L 242.960938 186.914062 L 131.734375 186.914062 Z M 131.734375 188.695312 " fill-opacity="1" fill-rule="nonzero"/><g clip-path="url(#d19940d475)"><path fill="#000000" d="M 246.851562 153.972656 L 246.851562 152.125 L 254.835938 152.125 L 254.835938 223.484375 L 246.851562 223.484375 L 246.851562 221.640625 L 252.996094 221.640625 L 252.996094 153.972656 Z M 246.851562 153.972656 " fill-opacity="1" fill-rule="nonzero"/></g></svg>